<svg width="1126" height="691" viewBox="0 0 1126 691" fill="none" xmlns="http://www.w3.org/2000/svg">
<path d="M595.31 504.69H517.57V684.95H595.31V504.69Z" fill="#231F20"/>
<path d="M389.08 670H718.89C722.633 670.003 726.222 671.491 728.868 674.139C731.514 676.787 733 680.377 733 684.12V684.12H375C375 680.382 376.482 676.797 379.121 674.15C381.761 671.503 385.342 670.011 389.08 670V670Z" fill="white"/>
<path d="M733.51 684.65H374.51V684.14C374.515 680.257 376.061 676.535 378.807 673.79C381.554 671.046 385.277 669.503 389.16 669.5H718.86C722.743 669.503 726.466 671.046 729.212 673.79C731.959 676.535 733.504 680.257 733.51 684.14V684.65ZM375.51 683.65H732.51C732.375 680.122 730.88 676.782 728.337 674.332C725.794 671.882 722.401 670.513 718.87 670.51H389.11C385.58 670.513 382.189 671.881 379.646 674.329C377.103 676.776 375.607 680.113 375.47 683.64L375.51 683.65Z" fill="#231F20"/>
<path d="M996.06 254L1026.06 447.48C1020.6 425.89 941.27 300.48 983.06 169.98L995.16 248.1L981.16 254H996.06Z" fill="#95A6A3"/>
<path d="M1026.53 447.55C1025.6 443.85 1022.44 437 1018.06 427.55C997.38 382.74 948.96 277.8 983.56 169.81L984.21 167.81L996.69 248.41L984.63 253.5H997.49L997.55 253.92L1027.55 447.4L1026.53 447.55ZM983.87 172.13C950.64 279.03 998.47 382.68 1018.97 427.13C1021.81 433.28 1024.14 438.32 1025.69 442.13L996.63 254.46H979.63L995.55 247.75L983.87 172.13Z" fill="#95A6A3"/>
<path d="M1067.76 173.6L1032.76 179.67L1065.99 185.85L1060.58 223.64L1032.76 220.24L1059.14 233.74L1028.3 449.33C1028.3 449.33 965.89 144.27 1081.3 79.1699L1067.76 173.6Z" fill="#607A75"/>
<path d="M1028.4 452.26L1027.82 449.43C1027.67 448.67 1012.2 372.15 1011.03 288.67C1010.34 239.62 1014.65 197.79 1023.84 164.34C1035.35 122.45 1054.59 93.65 1081.02 78.73L1081.91 78.23L1068.2 174L1035.62 179.66L1066.62 185.42L1061 224.2L1035.5 221.08L1059.68 233.46V233.81L1028.4 452.26ZM1080.63 80.11C1054.89 95.04 1036.12 123.45 1024.81 164.6C1015.65 197.95 1011.35 239.69 1012.03 288.6C1013.03 362.82 1025.42 431.53 1028.24 446.28L1058.61 234L1030 219.4L1060.13 223.09L1065.4 186.26L1030 179.65L1067.36 173.17L1080.63 80.11Z" fill="#607A75"/>
<path d="M1102.34 330.64L1087.91 323L1098.69 336.46L1028.32 449.3C1028.32 449.3 1041.55 301.01 1124.77 294.64L1102.34 330.64Z" fill="#2B4E47"/>
<path d="M1027.63 451.37L1027.82 449.28C1027.82 448.91 1031.29 411.71 1044.82 374.22C1052.82 352.17 1062.67 334.33 1074.17 321.22C1088.57 304.75 1105.57 295.66 1124.68 294.22L1125.68 294.15L1102.48 331.35L1089.77 324.64L1099.27 336.51L1027.63 451.37ZM1123.82 295.26C1105.37 296.93 1088.95 305.88 1074.97 321.86C1063.56 334.86 1053.75 352.63 1045.81 374.56C1034.14 406.78 1029.98 438.77 1029.04 447.22L1098.04 336.53L1086 321.46L1102.16 329.98L1123.82 295.26Z" fill="#2B4E47"/>
<path d="M1083 396.32L1067.57 412.57L1083 634.72C1083 638.215 1082.64 641.7 1081.92 645.12C1081.58 646.73 1081.16 648.29 1080.68 649.84C1078.16 657.81 1073.69 665.027 1067.68 670.84C1071.29 674.643 1073.3 679.687 1073.3 684.93H992.1C992.097 679.64 994.144 674.554 997.81 670.74C991.829 664.949 987.385 657.759 984.88 649.82C984.39 648.28 983.98 646.71 983.63 645.1C982.908 641.68 982.546 638.195 982.55 634.7L998 412.57L982.57 396.32H1083Z" fill="white"/>
<path d="M1072.78 685.45H990.6V685C990.595 679.753 992.562 674.696 996.11 670.83C990.243 665.023 985.88 657.873 983.4 650C982.92 648.49 982.5 646.89 982.14 645.24C981.413 641.784 981.048 638.262 981.05 634.73L996.47 412.73L980.39 395.8H1083.18L1067.1 412.73L1082.52 634.67C1082.52 638.212 1082.16 641.744 1081.43 645.21C1081.1 646.76 1080.68 648.36 1080.17 649.97C1077.67 657.87 1073.27 665.038 1067.36 670.85C1069 672.667 1070.31 674.754 1071.24 677.02C1072.26 679.532 1072.78 682.218 1072.78 684.93V685.45ZM991.61 684.45H1071.77C1071.65 679.505 1069.7 674.781 1066.29 671.2L1065.95 670.84L1066.31 670.5C1072.27 664.741 1076.71 657.59 1079.22 649.69C1079.72 648.11 1080.13 646.54 1080.45 645.02C1081.16 641.633 1081.52 638.181 1081.52 634.72L1066.07 412.38L1066.23 412.22L1080.85 396.82H982.72L997.5 412.38V412.6L982.07 634.76C982.079 638.207 982.437 641.645 983.14 645.02C983.49 646.63 983.9 648.21 984.37 649.68C986.866 657.537 991.267 664.655 997.18 670.4L997.54 670.75L997.19 671.11C993.724 674.701 991.733 679.461 991.61 684.45V684.45Z" fill="#231F20"/>
<path d="M99.8597 444.58C99.8597 444.58 190 560.09 98.7797 559.24C7.55973 558.39 99.8597 444.58 99.8597 444.58Z" fill="white"/>
<path d="M99.7702 559.75H98.7702C78.7702 559.56 65.9202 553.86 60.7102 542.75C54.4202 529.4 59.0502 508.75 74.4502 481.36C81.8595 468.383 90.2155 455.969 99.4502 444.22C99.4904 444.155 99.5488 444.104 99.6181 444.072C99.6875 444.04 99.7647 444.029 99.8402 444.04C99.9168 444.04 99.9926 444.056 100.062 444.089C100.131 444.122 100.192 444.17 100.24 444.23C109.256 456.147 117.378 468.715 124.54 481.83C139.43 509.5 143.66 530.24 137.13 543.46C131.83 554.28 119.25 559.75 99.7702 559.75ZM99.8502 445.39C94.9802 451.54 47.6302 512.65 61.6302 542.39C66.6302 553.07 79.1602 558.58 98.7902 558.77C118.42 558.96 131.02 553.68 136.25 543.09C150.8 513.61 104.6 451.63 99.8502 445.39V445.39Z" fill="#231F20"/>
<path d="M91 559.17C91 559.17 95.63 488.74 156.33 456.95C156.37 457 209.77 497 91 559.17Z" fill="white"/>
<path d="M90.9996 559.67C90.9009 559.668 90.8044 559.64 90.7196 559.59C90.6458 559.539 90.5866 559.47 90.548 559.389C90.5093 559.309 90.4927 559.219 90.4996 559.13C91.9126 545.608 95.2601 532.36 100.44 519.79C108.44 500.03 124.61 473 156.1 456.5C156.179 456.449 156.271 456.422 156.365 456.422C156.459 456.422 156.551 456.449 156.63 456.5C156.77 456.6 170.13 466.83 168.7 484.61C166.31 514.27 125.25 541.74 91.2296 559.61C91.1595 559.65 91.0802 559.67 90.9996 559.67V559.67ZM156.28 457.54C125.28 473.91 109.28 500.62 101.37 520.17C96.3781 532.372 93.0841 545.202 91.5796 558.3C125.21 540.58 165.37 513.55 167.7 484.58C169 468.67 158.1 459 156.32 457.54H156.28Z" fill="#231F20"/>
<path d="M106 559.31C106 559.31 105.05 488.73 46.0999 453.64C46.1099 453.64 -9.31007 490.67 106 559.31Z" fill="white"/>
<path d="M106 559.81C105.911 559.812 105.824 559.787 105.75 559.74C72.6698 540.05 33.0798 510.34 32.2998 480.57C31.8298 462.78 45.6798 453.32 45.8198 453.23C45.8996 453.181 45.9913 453.156 46.0848 453.156C46.1782 453.156 46.2699 453.181 46.3498 453.23C76.9398 471.44 91.6598 499.31 98.6298 519.49C103.147 532.321 105.798 545.735 106.5 559.32C106.503 559.409 106.482 559.498 106.437 559.576C106.393 559.653 106.328 559.717 106.25 559.76C106.173 559.802 106.086 559.819 106 559.81ZM46.1298 454.24C44.2698 455.61 32.8898 464.65 33.3098 480.56C33.7398 496.66 46.6398 523.22 105.48 558.41C104.657 545.231 102.033 532.227 97.6798 519.76C90.7898 499.82 76.2498 472.29 46.1298 454.24Z" fill="#231F20"/>
<path d="M91 559.17C91 559.17 126.13 498.75 194.08 499.39C194.12 499.39 223.94 560.41 91 559.17Z" fill="white"/>
<path d="M95.0902 559.69H91.0302C90.9429 559.689 90.8573 559.666 90.7819 559.622C90.7065 559.578 90.6438 559.515 90.6002 559.44C90.5563 559.364 90.5332 559.278 90.5332 559.19C90.5332 559.102 90.5563 559.016 90.6002 558.94C97.789 547.622 106.607 537.426 116.77 528.68C132.44 515.05 158.35 498.9 193.07 498.9H194.12C194.214 498.901 194.305 498.927 194.384 498.977C194.464 499.026 194.528 499.096 194.57 499.18C194.64 499.34 202.2 515.18 192.57 530.52C180.32 549.88 147.54 559.69 95.0902 559.69ZM91.9302 558.69H94.8002C131.62 558.69 176.8 553.53 191.69 529.98C200.36 516.23 194.69 502.05 193.79 499.9H193.07C158.65 499.9 132.97 515.9 117.43 529.44C107.596 537.933 99.0109 547.774 91.9302 558.67V558.69Z" fill="#231F20"/>
<path d="M106 559.31C106 559.31 72.0004 498.24 4.06044 497.61C4.07044 497.61 -26.8896 558.06 106 559.31Z" fill="white"/>
<path d="M106 559.81C51.1795 559.29 17.2195 548.81 5.05954 528.75C-4.31046 513.25 3.52954 497.53 3.60954 497.38C3.64942 497.293 3.71457 497.219 3.79657 497.169C3.87857 497.119 3.97365 497.095 4.06954 497.1C39.3195 497.44 65.2795 514.26 80.8495 528.32C90.838 537.259 99.46 547.616 106.44 559.06C106.483 559.136 106.507 559.222 106.507 559.31C106.507 559.398 106.483 559.484 106.44 559.56C106.397 559.638 106.333 559.703 106.255 559.748C106.177 559.792 106.089 559.813 106 559.81V559.81ZM4.38954 498.11C3.38954 500.24 -2.48046 514.34 5.93954 528.24C20.7295 552.67 67.8395 558.37 105.13 558.8C98.2379 547.753 89.8215 537.734 80.1295 529.04C64.7695 515.15 39.1495 498.54 4.38954 498.11Z" fill="#231F20"/>
<path d="M189.33 545.33L188.42 642.17C188.314 653.286 183.798 663.905 175.863 671.692C167.929 679.478 157.226 683.794 146.11 683.69L48.6201 682.78C42.2004 682.73 35.8791 681.197 30.1501 678.3C28.0275 677.237 26.003 675.989 24.1001 674.57C18.767 670.64 14.4444 665.498 11.4887 659.57C8.53296 653.641 7.02875 647.094 7.10008 640.47L8.00008 543.63L189.33 545.33Z" fill="#2B4E47"/>
<path d="M146.5 684.2H146.1L48.6103 683.29C42.1168 683.247 35.722 681.697 29.9303 678.76C27.7783 677.693 25.7266 676.435 23.8003 675C18.4146 671.013 14.0474 665.81 11.0548 659.814C8.06228 653.819 6.52911 647.201 6.58034 640.5L7.49034 543.65C7.49526 543.519 7.54871 543.394 7.64034 543.3C7.74484 543.22 7.86959 543.172 8.00034 543.16L189.33 544.86C189.463 544.86 189.59 544.913 189.684 545.006C189.778 545.1 189.83 545.227 189.83 545.36L188.92 642.21C188.791 653.381 184.267 664.051 176.328 671.911C168.388 679.77 157.672 684.185 146.5 684.2V684.2ZM8.50034 544.14L7.60034 640.48C7.54595 647.022 9.03959 653.485 11.9593 659.34C14.879 665.195 19.1421 670.277 24.4003 674.17C26.2877 675.572 28.2955 676.803 30.4003 677.85C36.0539 680.723 42.2989 682.239 48.6403 682.28L146.13 683.19H146.52C157.43 683.18 167.896 678.871 175.65 671.196C183.403 663.521 187.819 653.099 187.94 642.19L188.84 545.85L8.50034 544.14Z" fill="#231F20"/>
<path d="M31.4301 626.58C24.3501 647.58 23.9301 664.98 30.1501 678.3C28.0275 677.237 26.0029 675.989 24.1001 674.57C19.7501 661.12 20.8501 644.57 27.3701 625.21C38.1601 593.15 32.4801 564.33 24.3101 543.79L28.9401 543.84C37.0001 565 42.3501 594.16 31.4301 626.58Z" fill="white"/>
<path d="M30.1503 678.8C30.0776 678.814 30.003 678.814 29.9303 678.8C27.7767 677.721 25.7251 676.449 23.8003 675C23.7189 674.934 23.6567 674.848 23.6203 674.75C19.2503 661.23 20.3503 644.52 26.8903 625.08C37.9603 592.22 31.3403 562.85 23.8903 544.01C23.8564 543.934 23.8432 543.851 23.8519 543.768C23.8607 543.686 23.8912 543.607 23.9403 543.54C23.9917 543.477 24.0555 543.425 24.1277 543.387C24.1999 543.349 24.279 543.326 24.3603 543.32H28.9803C29.0814 543.322 29.1794 543.355 29.2615 543.414C29.3436 543.473 29.406 543.555 29.4403 543.65C36.8503 562.95 43.2903 593.04 31.9503 626.73C24.9503 647.62 24.4803 664.9 30.6503 678.08C30.6921 678.175 30.704 678.28 30.6843 678.382C30.6647 678.484 30.6144 678.578 30.5403 678.65C30.49 678.702 30.4291 678.742 30.3617 678.768C30.2944 678.794 30.2223 678.805 30.1503 678.8ZM24.5303 674.26C25.9858 675.344 27.5163 676.323 29.1103 677.19C23.4603 663.94 24.1103 646.87 30.9603 626.42C42.1403 593.2 35.8803 563.5 28.5903 544.33H25.0503C32.4903 563.33 38.8703 592.65 27.8403 625.4C21.3903 644.53 20.2803 661 24.5303 674.26Z" fill="#231F20"/>
<path d="M85.4201 666.12C90.4801 672.74 94.4201 678.43 97.4201 683.24H92.2801C89.5501 679.07 86.1601 674.24 81.9701 668.78C70.5801 653.87 78.6101 627.21 85.7101 603.7C90.8701 586.58 95.7101 570.41 91.2901 564.18C89.9801 562.36 87.7901 561.41 84.6101 561.31C79.5501 561.12 76.2701 561.94 74.6101 563.82C71.8701 566.82 72.7601 573.3 73.7801 580.82C75.5801 594.12 78.0501 612.33 62.7201 627.82C51.2801 639.34 48.5201 655.71 54.5101 676.48C55.1601 678.72 55.8801 680.89 56.6301 682.97H52.0701C51.4768 681.297 50.9268 679.577 50.4201 677.81C44.0201 655.7 47.2201 637.39 59.6701 624.81C73.5201 610.81 71.3101 594.53 69.5201 581.43C68.3601 572.88 67.3601 565.5 71.4201 561.01C74.0201 558.14 78.4201 556.86 84.7901 557.09C89.3401 557.25 92.7001 558.82 94.7901 561.75C100.47 569.75 95.5401 586.07 89.7901 605.01C83.0601 627.42 75.3601 653 85.4201 666.12Z" fill="white"/>
<path d="M97.4598 683.74H92.3198C92.2385 683.74 92.1585 683.72 92.087 683.682C92.0154 683.643 91.9545 683.588 91.9098 683.52C88.9098 678.99 85.4798 674.14 81.6198 669.08C70.0698 653.96 78.1498 627.18 85.2798 603.55C90.4098 586.55 95.2797 570.55 90.9297 564.47C89.7197 562.78 87.6598 561.91 84.6398 561.81C79.7398 561.62 76.6398 562.4 74.9998 564.16C72.4198 566.99 73.2898 573.35 74.2898 580.71C76.1098 594.12 78.6098 612.47 63.0898 628.11C51.7898 639.5 49.0898 655.71 55.0098 676.28C55.6198 678.37 56.3298 680.54 57.1198 682.74C57.1468 682.816 57.1555 682.897 57.1451 682.977C57.1347 683.057 57.1054 683.134 57.0598 683.2C57.0139 683.266 56.9525 683.32 56.881 683.356C56.8095 683.393 56.7301 683.411 56.6498 683.41H52.0798C51.9765 683.407 51.8766 683.372 51.7929 683.312C51.7092 683.251 51.6455 683.167 51.6098 683.07C51.0398 681.42 50.4798 679.68 49.9598 677.89C43.4998 655.6 46.7498 637.11 59.3398 624.43C73.0098 610.64 70.8198 594.43 69.0498 581.43C67.8698 572.76 66.8498 565.27 71.0498 560.61C73.7498 557.61 78.2698 556.28 84.8098 556.52C89.5198 556.68 93.0198 558.33 95.2098 561.39C101.04 569.54 96.0698 586.01 90.3198 605.08C83.5598 627.51 75.9098 652.91 85.8098 665.87C90.4398 671.93 94.4998 677.7 97.8698 683.02C97.9164 683.099 97.941 683.189 97.941 683.28C97.941 683.372 97.9164 683.461 97.8698 683.54C97.8211 683.602 97.7589 683.653 97.6879 683.688C97.6168 683.722 97.5388 683.74 97.4598 683.74ZM92.5898 682.74H96.5397C93.2797 677.66 89.4098 672.18 85.0198 666.44C74.8098 653.07 82.5398 627.44 89.3698 604.78C95.0498 585.94 99.9498 569.68 94.3698 561.94C92.3698 559.13 89.1298 557.64 84.7498 557.48C78.4898 557.25 74.2598 558.48 71.7498 561.24C67.8298 565.56 68.8198 572.83 69.9698 581.24C71.7698 594.46 73.9698 610.9 59.9698 625.05C47.6498 637.45 44.4898 655.6 50.8398 677.52C51.3198 679.17 51.8398 680.79 52.3598 682.32H55.8598C55.1498 680.32 54.5198 678.38 53.9698 676.48C47.9698 655.48 50.7298 638.99 62.2998 627.32C77.4698 612.04 75.0098 593.96 73.2198 580.77C72.2198 573.16 71.2898 566.59 74.1698 563.4C75.9698 561.4 79.3898 560.54 84.5998 560.72C87.9498 560.84 90.2598 561.85 91.6598 563.81C96.2698 570.24 91.3598 586.51 86.1598 603.74C79.0998 627.16 71.0998 653.68 82.3298 668.39C86.2198 673.41 89.6498 678.21 92.5898 682.7V682.74Z" fill="#231F20"/>
<path d="M129.88 641.52C126.52 655.719 122.343 669.712 117.37 683.43H112.79C125.37 648.73 144.45 581.62 120.35 544.73H125.45C138.29 566.4 139.78 598.89 129.88 641.52Z" fill="white"/>
<path d="M117.37 683.93H112.78C112.701 683.925 112.624 683.903 112.555 683.865C112.485 683.827 112.426 683.774 112.38 683.71C112.331 683.646 112.301 683.572 112.29 683.493C112.28 683.414 112.29 683.334 112.32 683.26C142.73 599.37 130.14 560.63 119.93 545C119.883 544.923 119.858 544.835 119.858 544.745C119.858 544.655 119.883 544.567 119.93 544.49C119.97 544.406 120.034 544.337 120.114 544.29C120.195 544.244 120.287 544.223 120.38 544.23H125.47C125.556 544.229 125.641 544.251 125.716 544.293C125.791 544.335 125.855 544.396 125.9 544.47C138.8 566.24 140.31 598.92 130.39 641.63C127.031 655.861 122.847 669.885 117.86 683.63C117.819 683.724 117.75 683.804 117.662 683.857C117.574 683.911 117.472 683.936 117.37 683.93V683.93ZM113.5 682.93H117.02C121.942 669.344 126.072 655.484 129.39 641.42V641.42C139.21 599.14 137.79 566.78 125.16 545.24H121.27C131.5 561.47 134.71 584.92 130.82 614.96C127.5 640.54 119.62 665.91 113.5 682.89V682.93Z" fill="#231F20"/>
<path d="M140.15 683.64H135.27C142.671 670.675 148.167 656.711 151.59 642.18C156.29 622.65 157.97 601.06 156.59 578.01C155.895 566.942 154.559 555.923 152.59 545.01H156.94C158.854 555.818 160.16 566.725 160.85 577.68C162.67 607.64 159.93 647.84 140.15 683.64Z" fill="white"/>
<path d="M140.15 684.14H135.28C135.192 684.137 135.107 684.112 135.031 684.067C134.956 684.021 134.894 683.957 134.85 683.88C134.806 683.806 134.783 683.721 134.783 683.635C134.783 683.549 134.806 683.464 134.85 683.39C142.22 670.442 147.693 656.503 151.1 642C155.8 622.51 157.47 601 156.1 578C155.411 566.958 154.075 555.966 152.1 545.08C152.09 545.008 152.095 544.934 152.113 544.864C152.132 544.793 152.165 544.727 152.21 544.67C152.257 544.612 152.316 544.565 152.384 544.534C152.452 544.503 152.526 544.488 152.6 544.49H156.96C157.077 544.492 157.188 544.534 157.278 544.609C157.367 544.683 157.428 544.786 157.45 544.9C159.366 555.728 160.672 566.655 161.36 577.63C163.08 605.84 160.88 647.16 140.61 683.84C140.57 683.929 140.506 684.004 140.424 684.057C140.343 684.11 140.248 684.139 140.15 684.14V684.14ZM136.15 683.14H139.86C159.86 646.73 162.06 605.74 160.35 577.74C159.67 566.941 158.391 556.188 156.52 545.53H153.18C155.097 556.257 156.4 567.085 157.08 577.96C158.48 601.06 156.8 622.7 152.08 642.29C148.704 656.573 143.339 670.31 136.14 683.1L136.15 683.14Z" fill="#231F20"/>
<path d="M188.76 605.51L188.66 617.03C179.538 638.026 167.806 657.789 153.74 675.85C151.55 678.65 149.41 681.27 147.35 683.71L141.63 683.66C161.72 660.516 177.664 634.078 188.76 605.51Z" fill="white"/>
<path d="M147.35 684.21L141.64 684.16C141.543 684.158 141.448 684.129 141.367 684.076C141.286 684.023 141.221 683.948 141.18 683.86C141.142 683.773 141.13 683.677 141.144 683.584C141.159 683.49 141.198 683.402 141.26 683.33C161.296 660.218 177.211 633.834 188.31 605.33C188.333 605.198 188.409 605.08 188.52 605.003C188.63 604.926 188.767 604.896 188.9 604.92C189.032 604.944 189.15 605.02 189.227 605.13C189.304 605.241 189.333 605.378 189.31 605.51L189.21 617.03C189.224 617.096 189.224 617.164 189.21 617.23C180.081 638.274 168.321 658.075 154.21 676.16C152.13 678.82 149.97 681.47 147.8 684.03C147.747 684.097 147.677 684.148 147.598 684.18C147.52 684.211 147.434 684.222 147.35 684.21ZM142.72 683.16L147.12 683.21C149.23 680.71 151.33 678.13 153.35 675.54C167.344 657.523 179.038 637.831 188.16 616.92L188.24 608.21C177.288 635.525 161.908 660.848 142.72 683.16V683.16Z" fill="#231F20"/>
<path d="M979.54 16.61V540.68C979.541 542.706 979.143 544.712 978.369 546.584C977.595 548.456 976.459 550.157 975.027 551.59C973.595 553.023 971.895 554.16 970.023 554.935C968.152 555.711 966.146 556.11 964.12 556.11H162.8C156.7 556.11 150.85 553.687 146.536 549.373C142.223 545.06 139.8 539.21 139.8 533.11V24.21C139.8 18.11 142.223 12.2598 146.536 7.9465C150.85 3.63317 156.7 1.20996 162.8 1.20996H964.12C968.206 1.20996 972.125 2.83181 975.016 5.7193C977.908 8.60679 979.535 12.5238 979.54 16.61V16.61Z" fill="white"/>
<path d="M964.12 556.61H162.8C156.565 556.602 150.587 554.121 146.178 549.712C141.769 545.303 139.288 539.325 139.28 533.09V24.2099C139.288 17.9745 141.769 11.9967 146.178 7.58755C150.587 3.17842 156.565 0.69788 162.8 0.689941H964.12C968.334 0.705799 972.37 2.38944 975.346 5.37273C978.321 8.35602 979.995 12.3962 980 16.6099V540.68C979.998 544.895 978.325 548.938 975.349 551.924C972.373 554.909 968.336 556.594 964.12 556.61V556.61ZM162.8 1.68994C156.83 1.69788 151.107 4.07306 146.885 8.29466C142.663 12.5163 140.288 18.2397 140.28 24.2099V533.09C140.288 539.06 142.663 544.784 146.885 549.005C151.107 553.227 156.83 555.602 162.8 555.61H964.12C968.07 555.594 971.854 554.014 974.642 551.216C977.431 548.419 978.998 544.63 979 540.68V16.6099C978.998 12.6537 977.425 8.8603 974.627 6.06284C971.83 3.26537 968.037 1.69259 964.08 1.68994H162.8Z" fill="#231F20"/>
<path d="M966.3 12.46H156.47V544.84H966.3V12.46Z" fill="white"/>
<path d="M966.81 545.34H156V12H966.84L966.81 545.34ZM156.97 544.34H965.8V13H157L156.97 544.34Z" fill="#231F20"/>
<path d="M677.48 106.75H228.37V189.79H677.48V106.75Z" fill="white"/>
<path d="M678 190.29H227.87V106.29H678V190.29ZM228.89 189.29H677V107.29H228.87L228.89 189.29Z" fill="#231F20"/>
<path d="M677.47 214.66H229.42V229.14H677.47V214.66Z" fill="white"/>
<path d="M678 229.64H228.92V214.15H678V229.64ZM229.94 228.64H677V215.16H229.92L229.94 228.64Z" fill="#231F20"/>
<path d="M677.47 254.15H229.42V268.63H677.47V254.15Z" fill="white"/>
<path d="M678 269.14H228.92V253.65H678V269.14ZM229.94 268.14H677V254.65H229.92L229.94 268.14Z" fill="#231F20"/>
<path d="M677.47 293.65H229.42V308.13H677.47V293.65Z" fill="white"/>
<path d="M678 308.63H228.92V293.15H678V308.63ZM229.94 307.63H677V294.15H229.92L229.94 307.63Z" fill="#231F20"/>
<path d="M677.47 333.15H229.42V347.63H677.47V333.15Z" fill="white"/>
<path d="M678 348.13H228.92V332.65H678V348.13ZM229.94 347.13H677V333.65H229.92L229.94 347.13Z" fill="#231F20"/>
<path d="M677.47 372.64H229.42V387.12H677.47V372.64Z" fill="white"/>
<path d="M678 387.63H228.92V372.14H678V387.63ZM229.94 386.63H677V373.14H229.92L229.94 386.63Z" fill="#231F20"/>
<path d="M677.47 412.14H229.42V426.62H677.47V412.14Z" fill="white"/>
<path d="M678 427.12H228.92V411.64H678V427.12ZM229.94 426.12H677V412.64H229.92L229.94 426.12Z" fill="#231F20"/>
<path d="M677.47 451.64H229.42V466.12H677.47V451.64Z" fill="white"/>
<path d="M678 466.62H228.92V451.14H678V466.62ZM229.94 465.62H677V452.14H229.92L229.94 465.62Z" fill="#231F20"/>
<path d="M456.14 487.06H229.42V501.54H456.14V487.06Z" fill="white"/>
<path d="M456.65 502.05H228.92V486.56H456.65V502.05ZM229.92 501.05H455.64V487.57H229.92V501.05Z" fill="#231F20"/>
<path d="M932.62 103.49H700.52V498.29H932.62V103.49Z" fill="white"/>
<path d="M933.12 498.79H700V103H933.1L933.12 498.79ZM701.02 497.79H932.12V104H701L701.02 497.79Z" fill="#231F20"/>
<path d="M932.153 103.255L700.198 498.139L701.06 498.645L933.016 103.761L932.153 103.255Z" fill="#231F20"/>
<path d="M966.3 12.46H156.47V51.3599H966.3V12.46Z" fill="#231F20"/>
<path d="M966.81 51.86H156V12H966.84L966.81 51.86ZM156.97 50.86H965.8V13H157L156.97 50.86Z" fill="#231F20"/>
<path d="M175.16 38.4399C179.241 38.4399 182.55 35.1313 182.55 31.0499C182.55 26.9685 179.241 23.6599 175.16 23.6599C171.078 23.6599 167.77 26.9685 167.77 31.0499C167.77 35.1313 171.078 38.4399 175.16 38.4399Z" fill="white"/>
<path d="M175.16 38.9999C173.597 39.0019 172.069 38.5403 170.768 37.6734C169.468 36.8066 168.454 35.5734 167.854 34.1301C167.255 32.6867 167.097 31.098 167.401 29.5649C167.704 28.0318 168.456 26.6232 169.56 25.5173C170.665 24.4115 172.072 23.6581 173.605 23.3525C175.138 23.0469 176.727 23.2027 178.171 23.8003C179.615 24.398 180.849 25.4105 181.718 26.7099C182.586 28.0093 183.05 29.5371 183.05 31.1C183.047 33.1926 182.216 35.199 180.737 36.6796C179.258 38.1603 177.253 38.9947 175.16 38.9999V38.9999ZM175.16 24.21C173.794 24.208 172.459 24.6112 171.323 25.3686C170.187 26.1261 169.301 27.2036 168.777 28.4648C168.254 29.726 168.116 31.1142 168.382 32.4536C168.648 33.793 169.305 35.0234 170.271 35.989C171.237 36.9546 172.467 37.6119 173.806 37.8778C175.146 38.1438 176.534 38.0063 177.795 37.4828C179.056 36.9593 180.134 36.0734 180.891 34.9371C181.649 33.8009 182.052 32.4655 182.05 31.1C182.055 30.1913 181.881 29.2906 181.537 28.4495C181.193 27.6083 180.687 26.8434 180.047 26.1986C179.407 25.5537 178.645 25.0417 177.807 24.6919C176.968 24.342 176.069 24.1613 175.16 24.1599V24.21Z" fill="#231F20"/>
<path d="M202.4 38.4399C206.481 38.4399 209.79 35.1313 209.79 31.0499C209.79 26.9685 206.481 23.6599 202.4 23.6599C198.318 23.6599 195.01 26.9685 195.01 31.0499C195.01 35.1313 198.318 38.4399 202.4 38.4399Z" fill="white"/>
<path d="M202.4 38.9999C200.837 39.0019 199.309 38.5403 198.009 37.6734C196.708 36.8066 195.694 35.5734 195.094 34.1301C194.495 32.6867 194.337 31.098 194.641 29.5649C194.945 28.0318 195.696 26.6232 196.801 25.5173C197.905 24.4115 199.313 23.6581 200.845 23.3525C202.378 23.0469 203.967 23.2027 205.411 23.8003C206.855 24.398 208.09 25.4105 208.958 26.7099C209.827 28.0093 210.29 29.5371 210.29 31.1C210.29 33.1934 209.459 35.2013 207.98 36.6826C206.501 38.1638 204.494 38.9973 202.4 38.9999V38.9999ZM202.4 24.21C201.035 24.208 199.699 24.6112 198.563 25.3686C197.427 26.1261 196.541 27.2036 196.017 28.4648C195.494 29.726 195.356 31.1142 195.622 32.4536C195.888 33.793 196.546 35.0234 197.511 35.989C198.477 36.9546 199.707 37.6119 201.047 37.8778C202.386 38.1438 203.774 38.0063 205.035 37.4828C206.297 36.9593 207.374 36.0734 208.132 34.9371C208.889 33.8009 209.292 32.4655 209.29 31.1C209.294 30.1917 209.119 29.2915 208.775 28.451C208.431 27.6105 207.924 26.8461 207.284 26.2015C206.644 25.5569 205.883 25.0449 205.045 24.6945C204.207 24.3442 203.309 24.1626 202.4 24.1599V24.21Z" fill="#231F20"/>
<path d="M229.63 38.4399C233.712 38.4399 237.02 35.1313 237.02 31.0499C237.02 26.9685 233.712 23.6599 229.63 23.6599C225.549 23.6599 222.24 26.9685 222.24 31.0499C222.24 35.1313 225.549 38.4399 229.63 38.4399Z" fill="white"/>
<path d="M229.63 39C228.068 39 226.541 38.5366 225.241 37.6686C223.942 36.8005 222.93 35.5667 222.332 34.1232C221.734 32.6796 221.577 31.0912 221.882 29.5588C222.187 28.0263 222.939 26.6186 224.044 25.5138C225.149 24.409 226.557 23.6566 228.089 23.3518C229.622 23.0469 231.21 23.2034 232.654 23.8013C234.097 24.3992 235.331 25.4118 236.199 26.711C237.067 28.0101 237.53 29.5375 237.53 31.1C237.53 32.1374 237.326 33.1647 236.929 34.1232C236.532 35.0816 235.95 35.9525 235.217 36.6861C234.483 37.4197 233.612 38.0016 232.654 38.3986C231.695 38.7956 230.668 39 229.63 39V39ZM229.63 24.21C228.265 24.208 226.93 24.6112 225.793 25.3687C224.657 26.1261 223.771 27.2036 223.248 28.4648C222.724 29.726 222.587 31.1142 222.853 32.4536C223.118 33.793 223.776 35.0234 224.741 35.989C225.707 36.9546 226.937 37.6119 228.277 37.8779C229.616 38.1438 231.004 38.0063 232.266 37.4828C233.527 36.9593 234.604 36.0734 235.362 34.9372C236.119 33.8009 236.522 32.4655 236.52 31.1C236.526 30.1913 236.351 29.2906 236.008 28.4495C235.664 27.6084 235.157 26.8434 234.517 26.1986C233.877 25.5537 233.116 25.0417 232.277 24.6919C231.439 24.342 230.539 24.1613 229.63 24.16V24.21Z" fill="#231F20"/>
<path d="M711.8 646C691.25 617.9 661.1 637.77 629.58 646.19C598.06 654.61 595.32 640.91 595.32 640.91L663.32 572.82L711.8 646Z" fill="#231F20"/>
<path d="M611.81 649.37C605.66 649.37 601.81 648.02 599.36 646.52C595.5 644.12 594.85 641.09 594.83 640.97C594.812 640.888 594.815 640.804 594.838 640.724C594.86 640.643 594.902 640.57 594.96 640.51L662.96 572.42C663.012 572.368 663.075 572.329 663.144 572.304C663.213 572.28 663.287 572.272 663.36 572.28C663.435 572.284 663.507 572.307 663.571 572.345C663.636 572.383 663.69 572.436 663.73 572.5L712.19 645.68C712.257 645.789 712.281 645.919 712.255 646.045C712.229 646.17 712.156 646.281 712.05 646.354C711.945 646.427 711.816 646.457 711.689 646.438C711.563 646.418 711.448 646.351 711.37 646.25C695.37 624.38 673.04 632.13 649.37 640.33C642.95 642.55 636.31 644.85 629.65 646.63C623.846 648.305 617.849 649.226 611.81 649.37V649.37ZM595.88 641C596.63 642.976 598.044 644.631 599.88 645.68C603.94 648.18 612.35 650.2 629.4 645.68C636.03 643.91 642.65 641.62 649.05 639.4C670.69 631.89 691.24 624.76 707.13 639.9L663.21 573.58L595.88 641Z" fill="#231F20"/>
<path d="M654.98 466.01L677.4 684.14H651.64L672.94 678.68L640.08 466.01H654.98Z" fill="white"/>
<path d="M677.4 684.65H651.64C651.507 684.667 651.373 684.631 651.267 684.549C651.161 684.468 651.092 684.348 651.075 684.215C651.057 684.082 651.094 683.948 651.175 683.842C651.257 683.736 651.377 683.667 651.51 683.65L672.37 678.3L639.59 466.09C639.577 466.019 639.58 465.947 639.599 465.878C639.618 465.808 639.653 465.744 639.7 465.69C639.747 465.636 639.806 465.592 639.871 465.561C639.936 465.53 640.007 465.513 640.08 465.51H655C655.123 465.512 655.242 465.558 655.334 465.641C655.426 465.724 655.485 465.837 655.5 465.96L677.9 684.09C677.908 684.16 677.901 684.23 677.88 684.298C677.86 684.365 677.825 684.427 677.78 684.48C677.732 684.534 677.674 684.577 677.608 684.606C677.543 684.636 677.471 684.651 677.4 684.65V684.65ZM655.61 683.65H676.85L654.53 466.51H640.67L673.43 678.61C673.448 678.733 673.421 678.858 673.353 678.961C673.284 679.065 673.18 679.139 673.06 679.17L655.61 683.65Z" fill="#231F20"/>
<path d="M647.23 466.01L644.62 684.14H618.85L640.15 678.68L632.33 466.01H647.23Z" fill="white"/>
<path d="M644.62 684.65H618.85C618.728 684.649 618.61 684.604 618.518 684.523C618.426 684.442 618.367 684.331 618.35 684.21C618.334 684.088 618.364 683.964 618.434 683.862C618.505 683.761 618.61 683.689 618.73 683.66L639.63 678.3L631.83 466C631.829 465.866 631.879 465.738 631.97 465.64C632.064 465.542 632.193 465.484 632.33 465.48H647.23C647.365 465.48 647.494 465.534 647.59 465.63C647.637 465.677 647.674 465.733 647.698 465.795C647.722 465.857 647.733 465.924 647.73 465.99L645.12 684.12C645.124 684.188 645.114 684.256 645.091 684.321C645.067 684.385 645.031 684.443 644.984 684.493C644.938 684.543 644.881 684.582 644.818 684.609C644.756 684.636 644.688 684.65 644.62 684.65ZM622.82 683.65H644.12L646.73 466.52H632.85L640.65 678.68C640.653 678.794 640.617 678.906 640.548 678.997C640.479 679.088 640.381 679.153 640.27 679.18L622.82 683.65Z" fill="#231F20"/>
<path d="M626.62 375.86C626.62 375.86 643.46 367.52 651.84 387.34C660.22 407.16 674.84 391.06 684.73 416.7C699.14 454.02 636.16 464.34 624.8 435.64C616.23 414 634.47 419.73 623.92 401.94C613.37 384.15 626.62 375.86 626.62 375.86Z" fill="#231F20"/>
<path d="M654.18 452.62C641.4 452.62 628.83 447.19 624.33 435.82C619.94 424.72 622.47 420.63 624.71 417.03C626.79 413.68 628.59 410.78 623.49 402.19C612.82 384.19 626.22 375.52 626.35 375.44C626.63 375.3 633.44 372.01 640.67 374.69C645.67 376.53 649.53 380.74 652.25 387.18C656.06 396.18 661.18 397.59 666.6 399.06C673.08 400.81 679.78 402.63 685.15 416.55C691.89 434.01 681.7 445.15 669.92 449.76C664.893 451.67 659.558 452.639 654.18 452.62V452.62ZM626.86 376.3C626.09 376.8 614.31 384.74 624.35 401.68C629.76 410.8 627.72 414.08 625.56 417.56C623.4 421.04 621.05 424.82 625.26 435.45C631.46 451.1 653.6 455.05 669.6 448.79C684.28 443.05 689.76 431.12 684.27 416.88C679.08 403.43 672.63 401.68 666.39 399.99C660.73 398.46 655.39 396.99 651.39 387.54C648.78 381.36 645.08 377.35 640.39 375.6C633.76 373.14 627.29 376.1 626.86 376.3Z" fill="#231F20"/>
<path d="M628.62 413.12L610.36 461L577.57 453.64L571.57 451.98L555.12 456.48C555.12 456.48 562.24 468.78 577.19 461.19L604.52 476.89C608.05 478.918 612.176 479.655 616.19 478.975C620.204 478.294 623.856 476.238 626.52 473.16L641.52 455.84L628.62 413.12Z" fill="white"/>
<path d="M613.27 479.7C610.112 479.709 607.008 478.885 604.27 477.31L577.18 461.74C562.18 469.21 554.76 456.84 554.68 456.74C554.642 456.673 554.62 456.599 554.615 456.522C554.61 456.446 554.623 456.369 554.652 456.298C554.68 456.227 554.725 456.163 554.782 456.111C554.839 456.06 554.906 456.022 554.98 456L571.44 451.51C571.526 451.49 571.615 451.49 571.7 451.51L577.7 453.17L610.05 460.43L628.15 412.96C628.185 412.86 628.252 412.775 628.341 412.717C628.429 412.659 628.535 412.632 628.64 412.64C628.745 412.644 628.846 412.681 628.928 412.746C629.011 412.811 629.071 412.899 629.1 413L642 455.68C642.024 455.761 642.028 455.846 642.01 455.928C641.993 456.01 641.955 456.086 641.9 456.15L626.9 473.47C625.209 475.427 623.116 476.996 620.764 478.071C618.412 479.146 615.856 479.702 613.27 479.7V479.7ZM577.27 460.7C577.358 460.702 577.444 460.726 577.52 460.77L604.85 476.47C608.275 478.442 612.28 479.16 616.176 478.499C620.073 477.839 623.617 475.841 626.2 472.85L641 455.71L628.62 414.71L610.88 461.21C610.836 461.322 610.753 461.414 610.647 461.471C610.541 461.528 610.418 461.545 610.3 461.52L577.51 454.16L571.66 452.53L556 456.77C557.59 459.06 564.37 467.17 577.06 460.77C577.109 460.725 577.167 460.691 577.23 460.67L577.27 460.7Z" fill="#231F20"/>
<path d="M622.32 470.3V434.3C622.32 433.11 622.32 431.94 622.47 430.78C623.82 415.01 634.18 402.78 646.75 402.78C653.5 402.78 659.61 406.31 664.04 412.01C665.459 413.856 666.673 415.851 667.66 417.96C670.859 424.963 671.616 432.836 669.81 440.32L662.81 470.32L711.8 646C711.8 646 687.8 649.42 659.04 627.39C630.28 605.36 595.32 640.91 595.32 640.91L622.32 470.3Z" fill="#F5CFCE"/>
<path d="M708.21 646.63C700.36 646.63 680.84 644.63 658.74 627.75C646.97 618.75 632.74 618.24 616.61 626.29C608.936 630.208 601.883 635.239 595.68 641.22C595.607 641.3 595.509 641.354 595.402 641.374C595.295 641.393 595.185 641.378 595.088 641.329C594.991 641.281 594.912 641.202 594.864 641.104C594.815 641.007 594.8 640.897 594.82 640.79L621.82 470.26V434.26C621.82 433.07 621.82 431.87 621.97 430.7C623.36 414.46 633.97 402.21 646.75 402.21C653.44 402.21 659.75 405.56 664.44 411.65C665.877 413.511 667.107 415.523 668.11 417.65C671.356 424.756 672.123 432.746 670.29 440.34L663.37 470.25L712.29 645.78C712.306 645.85 712.308 645.922 712.296 645.992C712.284 646.062 712.258 646.13 712.22 646.19C712.181 646.25 712.13 646.301 712.069 646.339C712.009 646.377 711.941 646.401 711.87 646.41C710.656 646.56 709.434 646.634 708.21 646.63V646.63ZM638.08 619.63C645.797 619.625 653.29 622.222 659.35 627C685.2 646.8 707.35 645.9 711.16 645.57L662.37 470.44C662.35 470.358 662.35 470.272 662.37 470.19L669.37 440.19C671.131 432.826 670.388 425.085 667.26 418.19C666.289 416.115 665.091 414.153 663.69 412.34C659.17 406.51 653.17 403.34 646.8 403.34C634.59 403.34 624.37 415.19 623.02 430.91C622.92 432.05 622.87 433.22 622.87 434.38V470.38C622.876 470.406 622.876 470.434 622.87 470.46L596.05 639.47C602.076 633.879 608.843 629.145 616.16 625.4C623.83 621.58 631.19 619.68 638.08 619.68V619.63Z" fill="#231F20"/>
<path d="M645.55 411.86L649.69 407L645.29 388.19L635.8 386L640.14 404.55L639.35 408.89C639.198 409.662 639.307 410.463 639.66 411.167C640.013 411.87 640.59 412.436 641.299 412.776C642.009 413.116 642.812 413.211 643.581 413.045C644.351 412.879 645.043 412.462 645.55 411.86V411.86Z" fill="white"/>
<path d="M642.89 413.63C642.274 413.63 641.665 413.49 641.11 413.22C640.299 412.845 639.636 412.209 639.228 411.413C638.82 410.617 638.691 409.708 638.86 408.83L639.63 404.59L635.31 386.15C635.29 386.066 635.293 385.979 635.317 385.896C635.342 385.814 635.388 385.739 635.45 385.68C635.509 385.62 635.582 385.575 635.662 385.551C635.743 385.527 635.828 385.523 635.91 385.54L645.4 387.7C645.492 387.72 645.576 387.765 645.643 387.83C645.711 387.896 645.758 387.979 645.78 388.07L650.18 406.88C650.196 406.957 650.194 407.036 650.175 407.112C650.156 407.188 650.12 407.259 650.07 407.32L645.93 412.19C645.559 412.636 645.094 412.996 644.569 413.245C644.044 413.494 643.471 413.625 642.89 413.63V413.63ZM636.47 386.7L640.63 404.46C640.651 404.528 640.651 404.601 640.63 404.67L639.84 409.01C639.719 409.67 639.819 410.351 640.125 410.949C640.43 411.546 640.924 412.026 641.53 412.314C642.136 412.603 642.82 412.683 643.477 412.543C644.133 412.403 644.725 412.05 645.16 411.54L649.16 406.86L644.89 388.6L636.47 386.7Z" fill="#231F20"/>
<path d="M634.56 404.85C642.243 404.85 648.47 398.622 648.47 390.94C648.47 383.258 642.243 377.03 634.56 377.03C626.878 377.03 620.65 383.258 620.65 390.94C620.65 398.622 626.878 404.85 634.56 404.85Z" fill="white"/>
<path d="M634.57 405.36C631.67 405.359 628.838 404.485 626.442 402.851C624.047 401.217 622.199 398.899 621.14 396.2V396.2C620.1 393.546 619.87 390.644 620.48 387.859C621.09 385.075 622.511 382.534 624.565 380.558C626.619 378.582 629.213 377.259 632.019 376.757C634.824 376.255 637.716 376.596 640.327 377.738C642.939 378.879 645.154 380.77 646.691 383.17C648.228 385.57 649.019 388.372 648.964 391.222C648.908 394.071 648.009 396.841 646.38 399.179C644.75 401.518 642.464 403.321 639.81 404.36C638.142 405.021 636.364 405.36 634.57 405.36V405.36ZM622.07 395.83C623.036 398.3 624.713 400.429 626.889 401.946C629.064 403.463 631.641 404.301 634.293 404.354C636.945 404.407 639.553 403.672 641.787 402.242C644.022 400.812 645.782 398.752 646.845 396.322C647.908 393.892 648.227 391.201 647.761 388.59C647.295 385.979 646.064 383.564 644.226 381.652C642.387 379.74 640.023 378.416 637.432 377.848C634.841 377.28 632.14 377.493 629.67 378.46C626.363 379.761 623.706 382.319 622.281 385.575C620.857 388.831 620.781 392.518 622.07 395.83V395.83Z" fill="#231F20"/>
<path d="M633.39 388L630.749 389L627.569 384.07L628.799 389.76L625.289 391.14L621.39 386.49L623.249 391.93L618.669 393.73C618.669 393.73 615.119 382 629.489 378C643.859 374 647.489 385.88 647.489 385.88C647.489 385.88 649.769 388.46 646.549 397.95C646.756 395.376 646.723 392.788 646.45 390.22C646.378 389.766 646.143 389.355 645.789 389.063C645.435 388.77 644.986 388.618 644.527 388.634C644.068 388.65 643.631 388.833 643.298 389.149C642.965 389.466 642.759 389.893 642.719 390.35L642.309 396.29C642.309 396.29 638.76 385.85 633.39 388Z" fill="#231F20"/>
<path d="M646.57 398.44H646.47C646.35 398.418 646.243 398.351 646.17 398.252C646.098 398.154 646.066 398.031 646.08 397.91C646.275 395.372 646.238 392.821 645.97 390.29C645.92 389.958 645.75 389.656 645.492 389.441C645.234 389.226 644.906 389.114 644.57 389.125C644.235 389.136 643.915 389.27 643.672 389.501C643.428 389.733 643.278 390.045 643.25 390.38L642.83 396.32C642.82 396.436 642.772 396.546 642.692 396.631C642.612 396.717 642.506 396.772 642.39 396.79C642.275 396.803 642.159 396.777 642.061 396.715C641.962 396.653 641.888 396.56 641.85 396.45C641.85 396.39 639.64 390.08 636.27 388.52C635.853 388.314 635.396 388.199 634.93 388.183C634.464 388.168 634.001 388.252 633.57 388.43L630.93 389.43C630.821 389.47 630.701 389.472 630.591 389.435C630.48 389.399 630.385 389.327 630.32 389.23L628.64 386.62L629.29 389.62C629.318 389.737 629.303 389.859 629.248 389.966C629.193 390.072 629.102 390.155 628.99 390.2L625.47 391.57C625.374 391.609 625.268 391.616 625.168 391.591C625.067 391.566 624.977 391.51 624.91 391.43L622.73 388.84L623.73 391.74C623.773 391.862 623.766 391.996 623.712 392.113C623.658 392.231 623.561 392.323 623.44 392.37L618.87 394.16C618.805 394.187 618.736 394.201 618.665 394.201C618.595 394.201 618.525 394.187 618.46 394.16C618.339 394.092 618.246 393.982 618.2 393.85C617.391 390.716 617.779 387.393 619.29 384.53C621.11 381.21 624.5 378.85 629.36 377.53C643.36 373.64 647.58 384.53 647.97 385.66C648.37 386.22 650.04 389.32 647.06 398.12C647.023 398.218 646.955 398.302 646.867 398.359C646.779 398.417 646.675 398.445 646.57 398.44ZM634.82 387.17C635.467 387.178 636.105 387.324 636.69 387.6C639.17 388.75 640.99 391.97 641.98 394.1L642.25 390.3C642.283 389.708 642.536 389.149 642.96 388.734C643.384 388.32 643.949 388.079 644.542 388.06C645.134 388.041 645.713 388.246 646.163 388.632C646.612 389.019 646.9 389.561 646.97 390.15C647.124 391.398 647.204 392.653 647.21 393.91C648.55 388.04 647.15 386.22 647.13 386.2C647.088 386.146 647.054 386.085 647.03 386.02C646.89 385.56 643.33 374.66 629.62 378.47C625.03 379.75 621.85 381.95 620.15 385.02C618.876 387.481 618.48 390.304 619.03 393.02L622.62 391.61L620.91 386.61C620.872 386.499 620.874 386.378 620.916 386.268C620.958 386.158 621.038 386.067 621.14 386.01C621.243 385.955 621.362 385.937 621.477 385.959C621.591 385.98 621.695 386.041 621.77 386.13L625.44 390.5L628.22 389.41L627.08 384.14C627.052 384.026 627.066 383.906 627.12 383.801C627.173 383.697 627.262 383.615 627.37 383.57C627.479 383.523 627.602 383.516 627.715 383.551C627.829 383.586 627.926 383.66 627.99 383.76L630.99 388.34L633.25 387.46C633.752 387.269 634.284 387.171 634.82 387.17V387.17Z" fill="#231F20"/>
<path d="M644.3 471.65C641.878 471.635 639.466 471.347 637.11 470.79C630.61 469.29 625.34 464 621.85 455.5C621.799 455.377 621.8 455.238 621.852 455.115C621.903 454.993 622.001 454.895 622.125 454.845C622.248 454.795 622.386 454.795 622.509 454.847C622.632 454.898 622.729 454.997 622.78 455.12C626.14 463.31 631.17 468.39 637.33 469.81C649.61 472.65 657.58 467.81 664.33 462.04C664.38 461.998 664.439 461.966 664.502 461.947C664.564 461.927 664.63 461.92 664.696 461.926C664.761 461.932 664.825 461.951 664.883 461.982C664.941 462.013 664.993 462.054 665.035 462.105C665.077 462.155 665.109 462.214 665.128 462.277C665.147 462.339 665.154 462.405 665.148 462.471C665.142 462.536 665.123 462.6 665.093 462.658C665.062 462.716 665.02 462.768 664.97 462.81C659.44 467.5 653.09 471.65 644.3 471.65Z" fill="#231F20"/>
<path d="M645 462.59C641.55 462.59 638.65 460.8 636.38 457.24C628.82 445.4 630.92 436.76 632.76 429.13C634.36 422.53 635.76 416.83 630.76 410.24C630.68 410.132 630.645 409.997 630.664 409.865C630.683 409.732 630.753 409.611 630.86 409.53C630.913 409.491 630.973 409.463 631.037 409.448C631.101 409.432 631.168 409.429 631.233 409.44C631.298 409.45 631.36 409.473 631.416 409.507C631.473 409.542 631.521 409.587 631.56 409.64C636.78 416.64 635.28 422.81 633.7 429.36C631.9 436.8 629.86 445.22 637.18 456.7C639.33 460.06 642.04 461.7 645.28 461.59C653.63 461.29 663.53 449.82 669.62 438.59C669.651 438.531 669.692 438.479 669.743 438.437C669.794 438.394 669.853 438.362 669.916 438.343C669.979 438.323 670.046 438.317 670.112 438.323C670.178 438.329 670.242 438.349 670.3 438.38C670.359 438.41 670.411 438.452 670.453 438.504C670.495 438.555 670.527 438.614 670.545 438.677C670.564 438.741 670.57 438.808 670.562 438.873C670.554 438.939 670.533 439.003 670.5 439.06C664.27 450.55 654.07 462.28 645.32 462.59H645Z" fill="#231F20"/>
<path d="M646.55 530.7C635.101 530.758 623.851 527.706 614 521.87C613.944 521.836 613.894 521.791 613.855 521.738C613.816 521.685 613.787 521.625 613.771 521.56C613.756 521.496 613.753 521.43 613.763 521.364C613.773 521.299 613.796 521.236 613.83 521.18C613.902 521.069 614.014 520.991 614.143 520.961C614.272 520.931 614.407 520.952 614.52 521.02C628.33 529.55 653.02 534.9 677.16 521.92C677.279 521.859 677.416 521.848 677.543 521.887C677.67 521.926 677.777 522.013 677.84 522.13C677.872 522.188 677.891 522.252 677.897 522.318C677.904 522.384 677.897 522.451 677.877 522.514C677.858 522.577 677.826 522.636 677.784 522.687C677.741 522.738 677.689 522.779 677.63 522.81C668.09 527.989 657.406 530.701 646.55 530.7V530.7Z" fill="#231F20"/>
<path d="M648.86 514.26C644.45 514.26 638.3 511.54 631.86 508.7C627.091 506.42 622.153 504.515 617.09 503C617.024 502.984 616.962 502.954 616.908 502.914C616.853 502.874 616.808 502.823 616.773 502.765C616.738 502.707 616.715 502.643 616.705 502.576C616.695 502.509 616.698 502.441 616.715 502.375C616.731 502.309 616.76 502.248 616.801 502.193C616.841 502.139 616.891 502.093 616.949 502.058C617.007 502.023 617.072 502 617.139 501.99C617.206 501.98 617.274 501.984 617.34 502C622.463 503.521 627.462 505.437 632.29 507.73C640.51 511.37 648.29 514.8 651.97 512.44C653.53 511.44 654.31 509.44 654.37 506.31C654.55 494.95 639.17 492.31 625.61 490.08C623.41 489.71 621.34 489.36 619.34 488.98C619.209 488.953 619.094 488.877 619.019 488.766C618.945 488.656 618.916 488.521 618.94 488.39C618.966 488.259 619.043 488.145 619.153 488.07C619.263 487.995 619.399 487.966 619.53 487.99C621.53 488.37 623.59 488.72 625.77 489.09C639.77 491.44 655.57 494.09 655.37 506.33C655.31 509.82 654.37 512.09 652.51 513.33C651.409 513.987 650.141 514.311 648.86 514.26V514.26Z" fill="#231F20"/>
<path d="M668.85 493.26C664.02 493.26 658.8 491.67 653.31 488.54C640.74 481.38 629.71 475.24 621.87 472.54C621.808 472.518 621.75 472.484 621.701 472.441C621.652 472.397 621.611 472.343 621.583 472.284C621.554 472.225 621.537 472.16 621.533 472.094C621.529 472.028 621.538 471.962 621.56 471.9C621.582 471.838 621.615 471.78 621.659 471.731C621.703 471.681 621.756 471.641 621.816 471.612C621.875 471.584 621.94 471.567 622.006 471.563C622.072 471.559 622.138 471.568 622.2 471.59C630.11 474.34 641.2 480.51 653.81 487.69C659.243 490.79 664.343 492.317 669.11 492.27C669.243 492.27 669.37 492.323 669.464 492.416C669.557 492.51 669.61 492.637 669.61 492.77C669.61 492.903 669.557 493.03 669.464 493.123C669.37 493.217 669.243 493.27 669.11 493.27L668.85 493.26Z" fill="#231F20"/>
<path d="M642.76 609.46C628.58 609.46 614.21 602.64 603.01 590.26C602.964 590.215 602.927 590.16 602.902 590.1C602.876 590.04 602.863 589.975 602.863 589.91C602.863 589.845 602.876 589.781 602.902 589.72C602.927 589.66 602.964 589.606 603.01 589.56C603.057 589.513 603.112 589.476 603.173 589.451C603.234 589.425 603.299 589.412 603.365 589.412C603.431 589.412 603.497 589.425 603.558 589.451C603.619 589.476 603.674 589.513 603.72 589.56C616.97 604.2 634.72 610.93 651.17 607.56C660.8 605.56 666.26 603.2 667.85 600.24C669.06 597.98 668.03 595.46 666.95 592.8C665.77 589.88 664.43 586.58 666.07 583.25C668.18 578.99 674.69 575.49 686.58 572.25C688.01 571.85 689.46 571.52 691.01 571.25C691.141 571.23 691.275 571.261 691.383 571.338C691.492 571.414 691.566 571.53 691.59 571.66C691.614 571.79 691.585 571.924 691.51 572.033C691.435 572.141 691.32 572.216 691.19 572.24C689.67 572.52 688.25 572.84 686.85 573.24C675.41 576.37 668.91 579.79 666.97 583.72C665.52 586.65 666.72 589.6 667.88 592.45C669.04 595.3 670.16 598.07 668.73 600.74C666.97 604.03 661.45 606.52 651.37 608.58C648.537 609.161 645.653 609.455 642.76 609.46V609.46Z" fill="#231F20"/>
<path d="M637.87 584.17C637.697 584.184 637.523 584.184 637.35 584.17C634.11 583.49 631.5 576.42 628.2 567.46C624.12 556.46 619.04 542.65 611.37 538.39C611.312 538.358 611.261 538.315 611.22 538.263C611.179 538.211 611.149 538.151 611.131 538.088C611.112 538.024 611.107 537.958 611.115 537.892C611.122 537.826 611.143 537.763 611.175 537.705C611.207 537.647 611.25 537.596 611.302 537.555C611.354 537.514 611.413 537.484 611.477 537.466C611.541 537.447 611.607 537.442 611.673 537.45C611.739 537.457 611.802 537.478 611.86 537.51C619.86 541.95 625 555.9 629.14 567.11C632.08 575.11 634.86 582.62 637.56 583.19C637.943 583.224 638.329 583.158 638.68 582.998C639.03 582.839 639.333 582.591 639.56 582.28C643.25 578.43 641.06 570.39 639.12 563.28C637.38 556.91 635.88 551.41 638.58 549.28C641.28 547.15 648.24 549.36 660.75 556.6C669.75 561.79 678.82 562.11 686.99 557.51C687.105 557.462 687.233 557.458 687.351 557.499C687.468 557.539 687.567 557.621 687.628 557.729C687.69 557.837 687.71 557.964 687.684 558.086C687.659 558.207 687.59 558.316 687.49 558.39C678.98 563.16 669.57 562.84 660.25 557.46C648.46 550.65 641.57 548.23 639.19 550.07C637.02 551.74 638.51 557.19 640.09 562.97C642.09 570.32 644.37 578.65 640.29 582.9C639.993 583.264 639.626 583.564 639.21 583.782C638.794 584.001 638.338 584.132 637.87 584.17V584.17Z" fill="#231F20"/>
<path d="M654 624.59C653.92 624.591 653.842 624.573 653.771 624.538C653.7 624.503 653.638 624.453 653.59 624.39C653.551 624.337 653.523 624.276 653.507 624.212C653.492 624.148 653.489 624.082 653.499 624.017C653.509 623.952 653.532 623.89 653.567 623.833C653.601 623.777 653.646 623.728 653.7 623.69C663.82 616.14 676.56 614.35 691.57 618.36C695.711 619.571 700.08 619.784 704.32 618.98C704.384 618.967 704.45 618.966 704.515 618.979C704.579 618.991 704.641 619.016 704.695 619.053C704.75 619.089 704.797 619.135 704.834 619.19C704.871 619.244 704.896 619.305 704.91 619.37C704.924 619.434 704.926 619.501 704.914 619.566C704.902 619.631 704.877 619.693 704.84 619.748C704.804 619.803 704.757 619.85 704.702 619.887C704.647 619.923 704.585 619.948 704.52 619.96C700.132 620.796 695.608 620.58 691.32 619.33C676.61 615.4 664.16 617.14 654.32 624.49C654.228 624.56 654.115 624.595 654 624.59Z" fill="#231F20"/>
<path d="M609.1 630.49C609.001 630.493 608.903 630.465 608.82 630.41C604.887 627.863 601.283 624.84 598.09 621.41C598.043 621.363 598.006 621.308 597.981 621.247C597.955 621.186 597.942 621.121 597.942 621.055C597.942 620.989 597.955 620.923 597.981 620.863C598.006 620.802 598.043 620.746 598.09 620.7C598.136 620.653 598.19 620.616 598.25 620.591C598.311 620.566 598.375 620.553 598.44 620.553C598.505 620.553 598.57 620.566 598.63 620.591C598.69 620.616 598.745 620.653 598.79 620.7C601.928 624.08 605.472 627.059 609.34 629.57C609.451 629.645 609.527 629.76 609.553 629.891C609.579 630.022 609.553 630.158 609.48 630.27C609.437 630.332 609.38 630.384 609.315 630.422C609.249 630.46 609.176 630.483 609.1 630.49V630.49Z" fill="#231F20"/>
<path d="M649.75 440.78C648.45 440.78 647.36 439.55 646.3 436.93C642.19 426.74 650.55 414.68 658.3 406.36C658.393 406.268 658.519 406.217 658.65 406.217C658.78 406.217 658.906 406.268 659 406.36C659.046 406.406 659.084 406.462 659.109 406.523C659.134 406.584 659.147 406.649 659.147 406.715C659.147 406.781 659.134 406.846 659.109 406.907C659.084 406.968 659.046 407.024 659 407.07C651.46 415.18 643.3 426.88 647.21 436.58C648.06 438.69 648.93 439.8 649.73 439.81C651.73 439.81 654.27 433.68 656.73 427.81C658.94 422.49 661.44 416.46 664.31 412.65C664.348 412.596 664.397 412.551 664.454 412.517C664.51 412.483 664.573 412.46 664.638 412.451C664.704 412.441 664.77 412.445 664.834 412.462C664.898 412.48 664.958 412.509 665.01 412.55C665.113 412.631 665.182 412.749 665.201 412.88C665.219 413.01 665.187 413.143 665.11 413.25C662.31 416.96 659.84 422.93 657.66 428.19C654.74 435.19 652.42 440.78 649.75 440.78Z" fill="#231F20"/>
<path d="M640.15 678.68L644.62 684.14H618.85L640.15 678.68Z" fill="#231F20"/>
<path d="M644.62 684.65H618.85C618.728 684.649 618.61 684.604 618.518 684.523C618.426 684.442 618.367 684.331 618.35 684.21C618.334 684.088 618.364 683.964 618.434 683.862C618.505 683.761 618.61 683.689 618.73 683.66L640 678.2C640.094 678.177 640.192 678.181 640.284 678.211C640.376 678.241 640.457 678.296 640.52 678.37L644.98 683.83C645.042 683.902 645.081 683.991 645.093 684.085C645.106 684.179 645.091 684.275 645.05 684.36C645.011 684.443 644.95 684.513 644.874 684.564C644.799 684.615 644.711 684.645 644.62 684.65V684.65ZM622.82 683.65H643.56L639.96 679.26L622.82 683.65Z" fill="#231F20"/>
<path d="M672.94 678.68L677.4 684.14H651.64L672.94 678.68Z" fill="#231F20"/>
<path d="M677.4 684.65H651.64C651.507 684.667 651.373 684.631 651.267 684.55C651.161 684.468 651.092 684.348 651.075 684.215C651.057 684.083 651.093 683.949 651.175 683.843C651.257 683.737 651.377 683.667 651.51 683.65L672.81 678.19C672.902 678.166 672.999 678.169 673.09 678.199C673.181 678.229 673.26 678.285 673.32 678.36L677.789 683.82C677.849 683.893 677.887 683.982 677.9 684.075C677.912 684.169 677.898 684.264 677.859 684.35C677.818 684.438 677.754 684.513 677.672 684.566C677.591 684.619 677.497 684.648 677.4 684.65V684.65ZM655.609 683.65H676.349L672.75 679.26L655.609 683.65Z" fill="#231F20"/>
<path d="M674.39 453.87H674.29L667 452.42C666.867 452.395 666.75 452.318 666.674 452.206C666.598 452.095 666.57 451.958 666.595 451.825C666.62 451.692 666.697 451.575 666.809 451.499C666.92 451.423 667.057 451.395 667.19 451.42L674.48 452.86C674.609 452.889 674.721 452.967 674.794 453.077C674.867 453.187 674.894 453.32 674.87 453.45C674.851 453.565 674.793 453.67 674.706 453.747C674.618 453.823 674.506 453.867 674.39 453.87V453.87Z" fill="#231F20"/>
<path d="M742.907 571.26L393.535 327.263L380.005 346.636L729.377 590.634L742.907 571.26Z" fill="#231F20"/>
<path d="M858.25 635.888L690.385 518.653C679.142 510.801 663.663 513.55 655.811 524.793L655.748 524.883C647.896 536.126 650.645 551.605 661.888 559.457L829.753 676.692C840.996 684.544 856.475 681.795 864.327 670.552L864.39 670.462C872.242 659.219 869.493 643.74 858.25 635.888Z" fill="#231F20"/>
<path d="M388.66 509.3C483.095 509.3 559.65 432.745 559.65 338.31C559.65 243.875 483.095 167.32 388.66 167.32C294.225 167.32 217.67 243.875 217.67 338.31C217.67 432.745 294.225 509.3 388.66 509.3Z" fill="#231F20"/>
<path d="M512 424.42C492.629 452.18 464.461 472.595 432.05 482.362C399.639 492.13 364.881 490.678 333.397 478.243C301.913 465.808 275.544 443.116 258.555 413.838C241.566 384.559 234.95 350.406 239.778 316.901C244.605 283.396 260.593 252.499 285.156 229.207C309.719 205.915 341.421 191.59 375.135 188.548C408.848 185.506 442.602 193.926 470.938 212.445C499.273 230.964 520.534 258.5 531.28 290.6C538.735 312.862 540.874 336.561 537.526 359.799C534.178 383.036 525.436 405.167 512 424.42V424.42Z" fill="white"/>
<path d="M388.34 489.23C360.781 489.157 333.769 481.539 310.233 467.204C286.697 452.868 267.535 432.361 254.826 407.908C242.118 383.455 236.347 355.989 238.14 328.489C239.934 300.989 249.223 274.505 265 251.91C312.64 183.71 406.88 166.98 475.09 214.62C497.839 230.518 515.766 252.378 526.903 277.799C538.04 303.22 541.956 331.219 538.219 358.72C533.877 390.368 519.609 419.824 497.468 442.851C475.327 465.878 446.453 481.29 415 486.87C406.199 488.436 397.278 489.225 388.34 489.23V489.23ZM388.87 188.48C363.105 188.449 337.767 195.062 315.304 207.681C292.84 220.299 274.009 238.496 260.63 260.514C247.251 282.533 239.774 307.629 238.923 333.38C238.072 359.131 243.875 384.666 255.771 407.52C267.668 430.374 285.256 449.775 306.837 463.848C328.418 477.922 353.264 486.194 378.975 487.865C404.685 489.535 430.392 484.549 453.613 473.386C476.835 462.223 496.786 445.262 511.539 424.14L511.95 424.42L511.539 424.14C525.229 404.663 534.028 382.176 537.19 358.58C540.93 331.261 537.055 303.44 525.991 278.183C514.928 252.926 497.106 231.214 474.49 215.44C449.396 197.872 419.501 188.459 388.87 188.48V188.48Z" fill="#231F20"/>
<path d="M271.57 432.74C252.805 409.441 241.413 381.076 238.85 351.27C360.05 333.4 375.35 339.01 349.94 296.85C331.62 266.45 427.66 242.75 493.4 230.38C510.686 247.114 523.68 267.772 531.28 290.6C482.7 294.29 421.08 307.82 455.52 354.66C489.68 401.12 367.59 422.93 271.57 432.74Z" fill="white"/>
<path d="M271.57 433.24C271.495 433.239 271.421 433.221 271.353 433.189C271.286 433.156 271.227 433.108 271.18 433.05C252.318 409.694 240.884 381.224 238.35 351.31C238.336 351.184 238.372 351.058 238.45 350.958C238.529 350.859 238.644 350.795 238.77 350.78C256.27 348.2 271.44 346.12 284.83 344.29C332.65 337.75 354.48 334.77 358.96 325.42C361.79 319.5 357.82 310.9 349.51 297.11C348.186 295.113 347.394 292.811 347.209 290.423C347.023 288.034 347.45 285.637 348.45 283.46C354.33 270.35 384.23 250.46 493.3 229.89C493.378 229.872 493.46 229.875 493.537 229.898C493.614 229.92 493.684 229.963 493.74 230.02C511.059 246.833 524.09 267.557 531.74 290.45C531.765 290.521 531.773 290.597 531.762 290.672C531.752 290.747 531.723 290.818 531.68 290.88C531.637 290.943 531.581 290.996 531.515 291.034C531.449 291.072 531.376 291.095 531.3 291.1C498.41 293.6 457.25 300.83 447.93 321.1C443.73 330.25 446.41 341.44 455.93 354.35C462.02 362.62 463.45 370.55 460.18 377.9C446.33 409.13 350 425.23 271.62 433.24H271.57ZM239.39 351.7C241.977 381.154 253.253 409.175 271.79 432.21C413.1 417.75 451.73 394.48 459.26 377.51C462.36 370.51 460.97 362.92 455.12 354.95C445.39 341.73 442.67 330.2 447.04 320.69C452.28 309.29 471.04 294.76 530.6 290.15C522.996 267.732 510.19 247.435 493.23 230.92C444.1 240.18 360.37 259.32 349.37 283.87C348.437 285.899 348.04 288.134 348.215 290.36C348.39 292.587 349.132 294.731 350.37 296.59C358.86 310.68 362.89 319.52 359.86 325.85C355.15 335.69 333.16 338.7 284.97 345.28C271.7 347.1 256.68 349.15 239.39 351.7Z" fill="#231F20"/>
<path d="M249.49 676.85L261.76 625.34L248.1 633.71L245.24 676.85H249.49Z" fill="white"/>
<path d="M249.49 677.36H245.24C245.171 677.36 245.102 677.346 245.039 677.318C244.975 677.291 244.918 677.25 244.871 677.2C244.824 677.149 244.788 677.089 244.766 677.023C244.743 676.958 244.734 676.889 244.74 676.82L247.6 633.68C247.604 633.599 247.629 633.52 247.67 633.45C247.712 633.38 247.77 633.322 247.84 633.28L261.5 624.91C261.581 624.853 261.677 624.823 261.775 624.823C261.873 624.823 261.969 624.853 262.05 624.91C262.131 624.967 262.193 625.047 262.229 625.139C262.265 625.232 262.272 625.333 262.25 625.43L250 677C249.967 677.108 249.899 677.202 249.806 677.267C249.714 677.332 249.603 677.365 249.49 677.36V677.36ZM245.77 676.36H249.09L260.99 626.36L248.58 634L245.77 676.36Z" fill="#231F20"/>
<path d="M198.29 676.85L196.9 600.46L213.33 601.23L202.99 676.85H198.29Z" fill="white"/>
<path d="M203 677.36H198.3C198.168 677.357 198.043 677.304 197.949 677.211C197.856 677.117 197.803 676.992 197.8 676.86L196.41 600.47C196.413 600.332 196.466 600.201 196.56 600.1C196.663 600.005 196.8 599.954 196.94 599.96L213.37 600.73C213.44 600.733 213.508 600.751 213.57 600.782C213.632 600.814 213.687 600.857 213.731 600.911C213.775 600.965 213.808 601.027 213.827 601.094C213.845 601.161 213.85 601.231 213.84 601.3L203.5 676.92C203.483 677.041 203.424 677.152 203.332 677.233C203.24 677.314 203.122 677.359 203 677.36ZM198.8 676.36H202.57L212.77 601.72L197.42 601L198.8 676.36Z" fill="#231F20"/>
<path d="M232.31 414.59H222.72L233.36 392.74H242.95L232.31 414.59Z" fill="white"/>
<path d="M232.31 415.09H222.72C222.637 415.09 222.554 415.069 222.481 415.029C222.408 414.988 222.345 414.93 222.3 414.86C222.261 414.784 222.24 414.7 222.24 414.615C222.24 414.53 222.261 414.446 222.3 414.37L232.94 392.52C232.982 392.437 233.047 392.366 233.126 392.317C233.205 392.268 233.297 392.241 233.39 392.24H243C243.084 392.24 243.166 392.261 243.24 392.301C243.313 392.342 243.375 392.4 243.42 392.47C243.46 392.546 243.48 392.63 243.48 392.715C243.48 392.8 243.46 392.884 243.42 392.96L232.78 414.81C232.737 414.896 232.669 414.969 232.586 415.018C232.503 415.068 232.407 415.093 232.31 415.09V415.09ZM223.52 414.09H232L242.16 393.24H233.69L223.52 414.09Z" fill="#231F20"/>
<path d="M236.36 404.32C243.932 404.32 250.07 398.182 250.07 390.61C250.07 383.038 243.932 376.9 236.36 376.9C228.789 376.9 222.65 383.038 222.65 390.61C222.65 398.182 228.789 404.32 236.36 404.32Z" fill="white"/>
<path d="M236.36 404.82C233.55 404.82 230.803 403.986 228.466 402.425C226.129 400.864 224.308 398.644 223.232 396.048C222.157 393.451 221.875 390.594 222.423 387.838C222.972 385.081 224.325 382.549 226.312 380.562C228.3 378.575 230.832 377.221 233.588 376.673C236.345 376.125 239.202 376.406 241.798 377.482C244.395 378.557 246.614 380.378 248.176 382.715C249.737 385.052 250.57 387.799 250.57 390.61C250.565 394.377 249.066 397.988 246.403 400.652C243.739 403.316 240.127 404.815 236.36 404.82ZM236.36 377.41C233.747 377.41 231.193 378.185 229.02 379.637C226.848 381.089 225.155 383.153 224.155 385.567C223.155 387.981 222.894 390.638 223.405 393.201C223.915 395.763 225.175 398.117 227.023 399.964C228.872 401.811 231.226 403.069 233.789 403.577C236.353 404.086 239.009 403.823 241.423 402.822C243.836 401.82 245.899 400.125 247.349 397.952C248.799 395.778 249.572 393.223 249.57 390.61C249.568 387.108 248.175 383.751 245.698 381.275C243.221 378.8 239.862 377.41 236.36 377.41Z" fill="#231F20"/>
<path d="M272.96 582.33L260.74 654.19H242.03L251.37 584.3L228.48 493.85L218.66 583.01L212.1 654.19H195.49L197.29 585.91V474.09H259.45L272.96 582.33Z" fill="#231F20"/>
<path d="M259.45 438.58V474.09H197.28V438.58C197.246 430.612 200.272 422.936 205.734 417.135C211.196 411.334 218.677 407.852 226.632 407.407C234.587 406.961 242.41 409.587 248.485 414.742C254.56 419.898 258.424 427.188 259.28 435.11C259.402 436.262 259.459 437.421 259.45 438.58V438.58Z" fill="#F5CFCE"/>
<path d="M259.45 474.6H197.28C197.149 474.597 197.023 474.544 196.93 474.451C196.836 474.358 196.783 474.232 196.78 474.1V438.58C196.706 434.385 197.468 430.217 199.021 426.32C200.575 422.422 202.89 418.873 205.83 415.88C208.77 412.887 212.278 410.51 216.147 408.887C220.016 407.264 224.17 406.428 228.365 406.428C232.561 406.428 236.715 407.264 240.584 408.887C244.453 410.51 247.96 412.887 250.901 415.88C253.841 418.873 256.156 422.422 257.709 426.32C259.263 430.217 260.025 434.385 259.95 438.58V474.1C259.95 474.233 259.898 474.36 259.804 474.454C259.71 474.547 259.583 474.6 259.45 474.6ZM197.78 473.6H259V438.6C258.998 437.461 258.935 436.322 258.81 435.19C257.962 427.402 254.158 420.236 248.182 415.169C242.207 410.103 234.515 407.523 226.693 407.96C218.871 408.397 211.515 411.819 206.141 417.52C200.767 423.22 197.785 430.766 197.81 438.6L197.78 473.6Z" fill="#231F20"/>
<path d="M221.32 681.98H197.88L198.07 676.85H202.77L221.32 681.98Z" fill="#231F20"/>
<path d="M221.32 682.48H197.88C197.813 682.482 197.746 682.469 197.684 682.443C197.622 682.418 197.566 682.379 197.52 682.33C197.471 682.282 197.433 682.224 197.409 682.161C197.385 682.097 197.375 682.028 197.38 681.96L197.57 676.84C197.575 676.71 197.63 676.587 197.723 676.496C197.816 676.405 197.94 676.353 198.07 676.35H202.77H202.9L221.45 681.48C221.583 681.497 221.703 681.567 221.785 681.673C221.866 681.779 221.902 681.912 221.885 682.045C221.868 682.178 221.799 682.298 221.693 682.38C221.587 682.461 221.453 682.497 221.32 682.48ZM198.4 681.48H217.63L202.7 677.36H198.55L198.4 681.48Z" fill="#231F20"/>
<path d="M270.11 681.98H244.75L245.24 676.85H249.49L270.11 681.98Z" fill="#231F20"/>
<path d="M270.11 682.48H244.75C244.68 682.48 244.612 682.466 244.548 682.438C244.484 682.411 244.427 682.371 244.38 682.32C244.332 682.27 244.295 682.21 244.273 682.144C244.25 682.079 244.243 682.009 244.25 681.94L244.74 676.81C244.75 676.685 244.807 676.567 244.899 676.482C244.992 676.397 245.114 676.35 245.24 676.35H249.49H249.61L270.23 681.48C270.347 681.509 270.45 681.58 270.518 681.679C270.586 681.779 270.615 681.9 270.6 682.02C270.592 682.145 270.537 682.262 270.446 682.347C270.355 682.433 270.234 682.48 270.11 682.48V682.48ZM245.3 681.48H266L249.41 677.36H245.67L245.3 681.48Z" fill="#231F20"/>
<path d="M256.67 374.46C254.2 369 248.13 374.22 248.13 374.22C248.13 374.22 258.19 360.8 247.13 359.86C242.98 359.5 240.13 361.53 237.85 364.41C236.26 366.41 234.61 368.31 232.85 370.13C235.02 367.13 236.19 364.2 233.07 363.89C227.72 363.35 226.65 372.05 226.43 375.79C225.91 376.16 225.38 376.53 224.84 376.87C210.65 385.87 220.17 403.08 229.46 404.6C240.79 406.45 241.46 400.37 241.46 400.37C241.46 400.37 236.72 403.44 236.32 398.68C235.97 394.51 241.22 396.4 241.22 396.4V396.19C240.996 393.15 241.729 390.117 243.316 387.514C244.904 384.912 247.265 382.872 250.07 381.68C253.82 380.07 258 377.45 256.67 374.46Z" fill="#231F20"/>
<path d="M233.49 405.45C232.129 405.439 230.772 405.319 229.43 405.09C224.05 404.21 218.8 398.46 217.48 391.99C216.74 388.34 216.68 381.47 224.62 376.45C225.087 376.15 225.547 375.84 226 375.52C226.2 372.29 227 366.8 229.69 364.52C230.163 364.107 230.717 363.798 231.316 363.612C231.915 363.426 232.547 363.367 233.17 363.44C233.613 363.433 234.05 363.547 234.433 363.771C234.816 363.995 235.129 364.32 235.34 364.71C235.581 365.355 235.581 366.065 235.34 366.71C236.02 365.92 236.73 365.06 237.48 364.14C239.29 361.9 242.26 358.97 247.19 359.4C249.88 359.63 251.64 360.61 252.4 362.31C253.75 365.31 251.53 369.83 249.93 372.46C251.196 371.695 252.686 371.391 254.15 371.6C254.831 371.772 255.459 372.106 255.982 372.575C256.505 373.043 256.906 373.632 257.15 374.29V374.29C257.337 374.691 257.439 375.126 257.451 375.568C257.463 376.01 257.384 376.45 257.22 376.86C256.32 379.18 252.97 381.03 250.32 382.18C247.615 383.333 245.336 385.301 243.804 387.811C242.271 390.321 241.56 393.247 241.77 396.18V396.39C241.777 396.474 241.762 396.559 241.727 396.636C241.692 396.713 241.638 396.78 241.57 396.83C241.504 396.881 241.426 396.914 241.344 396.926C241.262 396.938 241.178 396.929 241.1 396.9C240.4 396.65 238.37 396.16 237.42 396.9C237.183 397.124 237.007 397.406 236.911 397.718C236.814 398.03 236.8 398.361 236.87 398.68C236.96 399.76 237.29 400.45 237.87 400.68C238.87 401.2 240.66 400.33 241.24 399.95C241.322 399.901 241.415 399.874 241.51 399.874C241.605 399.874 241.699 399.901 241.78 399.95C241.859 400.001 241.922 400.073 241.963 400.158C242.003 400.242 242.02 400.337 242.01 400.43C241.894 401.087 241.65 401.715 241.291 402.278C240.933 402.841 240.467 403.327 239.92 403.71C238.026 404.981 235.766 405.593 233.49 405.45V405.45ZM232.64 364.37C231.794 364.363 230.974 364.669 230.34 365.23C227.73 367.46 227.12 373.38 226.98 375.82C226.977 375.895 226.956 375.969 226.92 376.035C226.883 376.1 226.832 376.157 226.77 376.2C226.24 376.57 225.71 376.95 225.16 377.29C217.72 382 217.77 388.39 218.46 391.79C219.68 397.79 224.67 403.3 229.59 404.1C233.96 404.82 237.32 404.41 239.29 402.9C239.839 402.496 240.292 401.977 240.62 401.38C240.128 401.634 239.589 401.782 239.036 401.817C238.484 401.851 237.93 401.771 237.41 401.58C236.917 401.288 236.513 400.868 236.24 400.364C235.967 399.86 235.836 399.292 235.86 398.72C235.772 398.233 235.813 397.732 235.978 397.266C236.143 396.799 236.426 396.384 236.8 396.06C237.92 395.2 239.72 395.47 240.71 395.72C240.594 392.657 241.41 389.631 243.051 387.042C244.692 384.453 247.081 382.422 249.9 381.22C253.4 379.71 255.66 378.02 256.26 376.46C256.379 376.173 256.435 375.865 256.427 375.555C256.418 375.245 256.344 374.94 256.21 374.66C256.029 374.151 255.728 373.693 255.333 373.324C254.938 372.955 254.46 372.686 253.94 372.54C251.52 372.01 248.49 374.54 248.46 374.6C248.368 374.683 248.249 374.729 248.125 374.729C248.001 374.729 247.882 374.683 247.79 374.6C247.702 374.514 247.648 374.399 247.637 374.276C247.626 374.153 247.659 374.031 247.73 373.93C247.79 373.86 253.22 366.53 251.49 362.68C250.89 361.34 249.42 360.56 247.11 360.37C243.69 360.07 240.95 361.37 238.27 364.74C236.43 367.01 234.84 368.84 233.27 370.49C233.175 370.574 233.052 370.621 232.925 370.621C232.798 370.621 232.675 370.574 232.58 370.49C232.483 370.408 232.42 370.292 232.405 370.166C232.391 370.04 232.424 369.912 232.5 369.81C234.68 366.76 234.64 365.51 234.43 365.04C234.22 364.57 233.8 364.43 233.07 364.36C232.927 364.354 232.783 364.357 232.64 364.37Z" fill="#231F20"/>
<path d="M255.72 654.69H255.63C255.565 654.679 255.503 654.655 255.448 654.62C255.392 654.585 255.344 654.539 255.307 654.485C255.27 654.431 255.244 654.37 255.23 654.305C255.217 654.241 255.217 654.174 255.23 654.11L267.93 583L246.88 474.19C246.855 474.057 246.883 473.92 246.959 473.809C247.035 473.697 247.152 473.62 247.285 473.595C247.418 473.57 247.555 473.598 247.666 473.674C247.778 473.75 247.855 473.867 247.88 474L268.95 582.91C268.965 582.972 268.965 583.037 268.95 583.1L256.22 654.28C256.201 654.397 256.139 654.504 256.047 654.579C255.955 654.655 255.839 654.694 255.72 654.69Z" fill="white"/>
<path d="M231.59 506.63C231.478 506.629 231.369 506.592 231.281 506.523C231.192 506.454 231.129 506.358 231.1 506.25L228.1 494.25L215.17 488.64C215.05 488.585 214.955 488.486 214.907 488.363C214.858 488.24 214.859 488.102 214.91 487.98C214.936 487.92 214.974 487.865 215.021 487.819C215.069 487.773 215.125 487.737 215.186 487.713C215.247 487.689 215.313 487.677 215.379 487.678C215.445 487.679 215.51 487.694 215.57 487.72L228.72 493.43C228.791 493.462 228.853 493.509 228.904 493.567C228.954 493.626 228.99 493.695 229.01 493.77L232.11 506.05C232.127 506.113 232.13 506.179 232.121 506.243C232.112 506.308 232.09 506.37 232.056 506.426C232.023 506.482 231.978 506.53 231.926 506.569C231.873 506.607 231.813 506.635 231.75 506.65C231.696 506.661 231.64 506.654 231.59 506.63V506.63Z" fill="#231F20"/>
<path d="M244.19 411.83L284.69 474.09L307.34 488.73L325.72 484.44L319.72 494.79L335.72 500.9C335.72 500.9 297.79 518.39 263.47 478.17C232.09 441.4 244.19 411.83 244.19 411.83Z" fill="white"/>
<path d="M315.36 505.09C301.13 505.09 281.51 500.09 263.08 478.49C246.79 459.4 242.39 442.26 241.56 431.25C240.67 419.25 243.56 411.94 243.72 411.64C243.754 411.554 243.811 411.479 243.886 411.424C243.96 411.37 244.048 411.337 244.14 411.33C244.231 411.324 244.321 411.341 244.404 411.38C244.486 411.418 244.557 411.477 244.61 411.55L285.05 473.73L307.44 488.2L325.6 484C325.696 483.976 325.797 483.982 325.889 484.015C325.982 484.048 326.063 484.108 326.121 484.187C326.18 484.266 326.214 484.361 326.219 484.459C326.225 484.558 326.201 484.655 326.15 484.74L320.46 494.58L335.89 500.48C335.981 500.519 336.06 500.583 336.116 500.664C336.173 500.745 336.205 500.841 336.21 500.94C336.211 501.038 336.184 501.133 336.133 501.217C336.082 501.3 336.008 501.367 335.92 501.41C329.368 503.95 322.387 505.2 315.36 505.09ZM244.36 412.96C242.69 418.28 236.17 445.37 263.88 477.84C294.22 513.42 327.75 503.37 334.36 500.91L319.59 495.26C319.522 495.234 319.46 495.194 319.408 495.142C319.357 495.09 319.317 495.028 319.29 494.96C319.261 494.894 319.246 494.822 319.246 494.75C319.246 494.678 319.261 494.606 319.29 494.54L324.69 485.19L307.45 489.19C307.384 489.205 307.315 489.207 307.248 489.195C307.181 489.183 307.117 489.158 307.06 489.12L284.41 474.48C284.349 474.447 284.297 474.399 284.26 474.34L244.36 412.96Z" fill="#231F20"/>
<path d="M670.1 423.49C670.1 423.49 665.21 503.42 616.53 513.76C616.53 513.76 599.34 517.07 598.46 499.27L611.61 499.87L640.08 474.13L653.35 433.24C657.92 421.7 670.1 423.49 670.1 423.49Z" fill="white"/>
<path d="M613.38 514.52C609.776 514.62 606.239 513.526 603.32 511.41C600.03 508.82 598.23 504.75 597.96 499.29V498.74L611.46 499.36L639.68 473.85L652.91 433.08C657.58 421.28 670.08 422.98 670.21 422.99L670.66 423.06V423.52C669.465 437.608 666.595 451.502 662.11 464.91C652.48 492.91 636.78 509.99 616.69 514.26C615.596 514.442 614.489 514.529 613.38 514.52V514.52ZM599 499.8C599.34 504.67 601 508.31 603.94 510.62C609.05 514.62 616.36 513.29 616.43 513.27C662.24 503.54 669.05 430.56 669.57 423.93C667.33 423.74 657.74 423.51 653.82 433.42L640.52 474.42L611.8 500.42L599 499.8Z" fill="#231F20"/>
<path d="M266.31 433.65L248.47 461.05C248.47 461.05 231.73 440.05 244.19 411.83L266.31 433.65Z" fill="#F5CFCE"/>
<path d="M248.47 461.55C248.396 461.552 248.322 461.537 248.254 461.506C248.186 461.475 248.127 461.428 248.08 461.37C247.91 461.15 231.29 439.78 243.73 411.62C243.763 411.546 243.814 411.481 243.877 411.431C243.941 411.381 244.016 411.347 244.096 411.332C244.176 411.317 244.258 411.322 244.335 411.346C244.412 411.37 244.483 411.413 244.54 411.47L266.67 433.29C266.749 433.375 266.797 433.484 266.808 433.6C266.819 433.715 266.792 433.831 266.73 433.93L248.89 461.33C248.846 461.396 248.786 461.45 248.717 461.488C248.647 461.527 248.57 461.548 248.49 461.55H248.47ZM244.36 412.7C240.98 420.314 239.582 428.66 240.295 436.96C241.008 445.26 243.81 453.244 248.44 460.17L265.67 433.72L244.36 412.7Z" fill="#231F20"/>
<path d="M1001.36 66.2V333.39L936.78 377.91H770.95V66.2H1001.36Z" fill="white"/>
<path d="M936.79 378.41H771C770.867 378.41 770.74 378.357 770.646 378.263C770.553 378.17 770.5 378.043 770.5 377.91V66.2C770.5 66.0673 770.553 65.9401 770.646 65.8464C770.74 65.7526 770.867 65.7 771 65.7H1001.41C1001.54 65.7 1001.67 65.7526 1001.76 65.8464C1001.86 65.9401 1001.91 66.0673 1001.91 66.2V333.39C1001.91 333.471 1001.89 333.551 1001.85 333.623C1001.81 333.694 1001.76 333.755 1001.69 333.8L937.12 378.32C937.025 378.39 936.907 378.422 936.79 378.41V378.41ZM771.45 377.41H936.63L1000.86 333.12V66.7H771.45V377.41Z" fill="#231F20"/>
<path d="M803.76 173.42C815.562 173.42 825.13 163.852 825.13 152.05C825.13 140.248 815.562 130.68 803.76 130.68C791.957 130.68 782.39 140.248 782.39 152.05C782.39 163.852 791.957 173.42 803.76 173.42Z" fill="white"/>
<path d="M803.76 173.92C799.434 173.92 795.206 172.637 791.609 170.234C788.013 167.831 785.21 164.415 783.554 160.419C781.899 156.423 781.466 152.026 782.31 147.783C783.154 143.541 785.237 139.644 788.295 136.586C791.354 133.527 795.251 131.444 799.493 130.6C803.735 129.756 808.133 130.189 812.129 131.845C816.125 133.5 819.541 136.303 821.944 139.9C824.347 143.496 825.63 147.724 825.63 152.05C825.622 157.848 823.315 163.406 819.215 167.506C815.116 171.605 809.558 173.912 803.76 173.92V173.92ZM803.76 131.18C799.632 131.18 795.597 132.404 792.165 134.697C788.733 136.99 786.058 140.25 784.478 144.063C782.899 147.877 782.485 152.073 783.291 156.121C784.096 160.17 786.084 163.889 789.002 166.807C791.921 169.726 795.64 171.714 799.688 172.519C803.737 173.324 807.933 172.911 811.746 171.331C815.56 169.752 818.819 167.077 821.112 163.645C823.406 160.213 824.63 156.178 824.63 152.05C824.624 146.516 822.424 141.211 818.511 137.298C814.598 133.386 809.293 131.185 803.76 131.18V131.18Z" fill="#231F20"/>
<path d="M798.81 161.82C798.546 161.82 798.284 161.768 798.041 161.667C797.797 161.566 797.576 161.417 797.39 161.23L789.63 153.47C789.444 153.284 789.296 153.062 789.196 152.819C789.096 152.575 789.044 152.315 789.045 152.051C789.045 151.788 789.098 151.528 789.199 151.285C789.3 151.042 789.448 150.821 789.635 150.635C789.821 150.449 790.042 150.302 790.286 150.202C790.529 150.101 790.79 150.05 791.053 150.05C791.316 150.051 791.577 150.103 791.82 150.204C792.063 150.305 792.284 150.454 792.47 150.64L798.81 156.98L823.71 132.08C824.085 131.705 824.594 131.494 825.125 131.494C825.655 131.494 826.164 131.705 826.54 132.08C826.915 132.455 827.126 132.964 827.126 133.495C827.126 134.026 826.915 134.535 826.54 134.91L800.23 161.23C800.043 161.417 799.822 161.566 799.579 161.667C799.335 161.768 799.073 161.82 798.81 161.82V161.82Z" fill="#231F20"/>
<path d="M978.31 146.65H848.22V159.81H978.31V146.65Z" fill="white"/>
<path d="M978.31 160.31H848.22C848.087 160.31 847.96 160.257 847.866 160.163C847.772 160.07 847.72 159.943 847.72 159.81V146.65C847.72 146.517 847.772 146.39 847.866 146.296C847.96 146.203 848.087 146.15 848.22 146.15H978.31C978.442 146.152 978.567 146.206 978.66 146.299C978.754 146.392 978.807 146.518 978.81 146.65V159.81C978.81 159.943 978.757 160.07 978.663 160.163C978.57 160.257 978.442 160.31 978.31 160.31ZM848.72 159.31H977.81V147.15H848.72V159.31Z" fill="#231F20"/>
<path d="M803.76 229.23C815.562 229.23 825.13 219.662 825.13 207.86C825.13 196.058 815.562 186.49 803.76 186.49C791.957 186.49 782.39 196.058 782.39 207.86C782.39 219.662 791.957 229.23 803.76 229.23Z" fill="white"/>
<path d="M803.76 229.73C799.434 229.73 795.206 228.447 791.609 226.044C788.013 223.641 785.21 220.226 783.554 216.229C781.899 212.233 781.466 207.836 782.31 203.593C783.154 199.351 785.237 195.454 788.295 192.396C791.354 189.337 795.251 187.254 799.493 186.41C803.735 185.566 808.133 185.999 812.129 187.655C816.125 189.31 819.541 192.113 821.944 195.71C824.347 199.306 825.63 203.535 825.63 207.86C825.622 213.658 823.315 219.216 819.215 223.316C815.116 227.415 809.558 229.722 803.76 229.73ZM803.76 186.99C799.632 186.99 795.597 188.214 792.165 190.507C788.733 192.8 786.058 196.06 784.478 199.873C782.899 203.687 782.485 207.883 783.291 211.932C784.096 215.98 786.084 219.699 789.002 222.617C791.921 225.536 795.64 227.524 799.688 228.329C803.737 229.134 807.933 228.721 811.746 227.141C815.56 225.562 818.819 222.887 821.112 219.455C823.406 216.023 824.63 211.988 824.63 207.86C824.622 202.328 822.42 197.026 818.508 193.115C814.595 189.204 809.291 187.005 803.76 187V186.99Z" fill="#231F20"/>
<path d="M798.81 217.62C798.546 217.622 798.285 217.571 798.042 217.472C797.798 217.372 797.576 217.225 797.39 217.04L789.63 209.28C789.444 209.094 789.296 208.872 789.196 208.629C789.096 208.386 789.044 208.125 789.045 207.862C789.045 207.598 789.098 207.338 789.199 207.095C789.3 206.852 789.448 206.631 789.635 206.445C789.821 206.259 790.042 206.112 790.286 206.012C790.529 205.911 790.79 205.86 791.053 205.86C791.316 205.861 791.577 205.913 791.82 206.014C792.063 206.116 792.284 206.264 792.47 206.45L798.81 212.79L823.71 187.89C824.085 187.515 824.594 187.304 825.125 187.304C825.655 187.304 826.164 187.515 826.54 187.89C826.915 188.265 827.126 188.774 827.126 189.305C827.126 189.836 826.915 190.345 826.54 190.72L800.23 217C800.046 217.193 799.826 217.347 799.582 217.453C799.338 217.56 799.076 217.616 798.81 217.62Z" fill="#231F20"/>
<path d="M978.31 202.46H848.22V215.62H978.31V202.46Z" fill="white"/>
<path d="M978.31 216.12H848.22C848.087 216.12 847.96 216.067 847.866 215.974C847.772 215.88 847.72 215.753 847.72 215.62V202.46C847.72 202.327 847.772 202.2 847.866 202.106C847.96 202.013 848.087 201.96 848.22 201.96H978.31C978.442 201.96 978.57 202.013 978.663 202.106C978.757 202.2 978.81 202.327 978.81 202.46V215.62C978.81 215.753 978.757 215.88 978.663 215.974C978.57 216.067 978.442 216.12 978.31 216.12ZM848.72 215.12H977.81V203H848.72V215.12Z" fill="#231F20"/>
<path d="M803.76 285.04C815.562 285.04 825.13 275.472 825.13 263.67C825.13 251.868 815.562 242.3 803.76 242.3C791.957 242.3 782.39 251.868 782.39 263.67C782.39 275.472 791.957 285.04 803.76 285.04Z" fill="white"/>
<path d="M803.76 285.54C799.434 285.54 795.206 284.257 791.609 281.854C788.013 279.451 785.21 276.036 783.554 272.039C781.899 268.043 781.466 263.646 782.31 259.403C783.154 255.161 785.237 251.264 788.295 248.206C791.354 245.147 795.251 243.064 799.493 242.22C803.735 241.376 808.133 241.81 812.129 243.465C816.125 245.12 819.541 247.923 821.944 251.52C824.347 255.116 825.63 259.345 825.63 263.67C825.622 269.468 823.315 275.026 819.215 279.126C815.116 283.225 809.558 285.532 803.76 285.54V285.54ZM803.76 242.8C799.632 242.8 795.597 244.024 792.165 246.317C788.733 248.611 786.058 251.87 784.478 255.683C782.899 259.497 782.485 263.693 783.291 267.742C784.096 271.79 786.084 275.509 789.002 278.427C791.921 281.346 795.64 283.334 799.688 284.139C803.737 284.944 807.933 284.531 811.746 282.951C815.56 281.372 818.819 278.697 821.112 275.265C823.406 271.833 824.63 267.798 824.63 263.67C824.624 258.137 822.424 252.831 818.511 248.919C814.598 245.006 809.293 242.805 803.76 242.8V242.8Z" fill="#231F20"/>
<path d="M798.81 273.43C798.547 273.432 798.286 273.381 798.042 273.282C797.799 273.182 797.577 273.035 797.39 272.85L789.63 265.09C789.444 264.904 789.296 264.682 789.195 264.439C789.094 264.195 789.042 263.934 789.042 263.67C789.042 263.406 789.094 263.145 789.195 262.902C789.296 262.658 789.444 262.437 789.63 262.25C789.817 262.064 790.038 261.916 790.282 261.815C790.525 261.714 790.786 261.662 791.05 261.662C791.314 261.662 791.575 261.714 791.819 261.815C792.062 261.916 792.284 262.064 792.47 262.25L798.81 268.6L823.71 243.69C824.087 243.315 824.597 243.105 825.129 243.105C825.66 243.106 826.17 243.319 826.545 243.695C826.92 244.072 827.131 244.582 827.13 245.114C827.129 245.645 826.917 246.155 826.54 246.53L800.23 272.85C800.043 273.035 799.822 273.182 799.578 273.282C799.334 273.381 799.073 273.432 798.81 273.43V273.43Z" fill="#231F20"/>
<path d="M978.31 258.27H848.22V271.43H978.31V258.27Z" fill="white"/>
<path d="M978.31 271.93H848.22C848.087 271.93 847.96 271.877 847.866 271.784C847.772 271.69 847.72 271.563 847.72 271.43V258.27C847.72 258.137 847.772 258.01 847.866 257.916C847.96 257.823 848.087 257.77 848.22 257.77H978.31C978.442 257.77 978.57 257.823 978.663 257.916C978.757 258.01 978.81 258.137 978.81 258.27V271.43C978.81 271.563 978.757 271.69 978.663 271.784C978.57 271.877 978.442 271.93 978.31 271.93ZM848.72 270.93H977.81V258.77H848.72V270.93Z" fill="#231F20"/>
<path d="M803.76 340.85C815.562 340.85 825.13 331.282 825.13 319.48C825.13 307.678 815.562 298.11 803.76 298.11C791.957 298.11 782.39 307.678 782.39 319.48C782.39 331.282 791.957 340.85 803.76 340.85Z" fill="white"/>
<path d="M803.76 341.35C799.434 341.35 795.206 340.067 791.609 337.664C788.013 335.261 785.21 331.845 783.554 327.849C781.899 323.853 781.466 319.456 782.31 315.213C783.154 310.971 785.237 307.074 788.295 304.015C791.354 300.957 795.251 298.874 799.493 298.03C803.735 297.186 808.133 297.619 812.129 299.275C816.125 300.93 819.541 303.733 821.944 307.33C824.347 310.926 825.63 315.154 825.63 319.48C825.622 325.278 823.315 330.836 819.215 334.936C815.116 339.035 809.558 341.342 803.76 341.35V341.35ZM803.76 298.61C799.632 298.61 795.597 299.834 792.165 302.127C788.733 304.42 786.058 307.68 784.478 311.493C782.899 315.307 782.485 319.503 783.291 323.551C784.096 327.6 786.084 331.318 789.002 334.237C791.921 337.156 795.64 339.144 799.688 339.949C803.737 340.754 807.933 340.341 811.746 338.761C815.56 337.182 818.819 334.507 821.112 331.075C823.406 327.643 824.63 323.608 824.63 319.48C824.624 313.946 822.424 308.641 818.511 304.728C814.598 300.816 809.293 298.615 803.76 298.61V298.61Z" fill="#231F20"/>
<path d="M798.81 329.24C798.547 329.241 798.286 329.191 798.042 329.091C797.799 328.992 797.577 328.845 797.39 328.66L789.63 320.9C789.254 320.523 789.042 320.013 789.042 319.48C789.042 318.947 789.254 318.437 789.63 318.06C790.007 317.683 790.518 317.472 791.05 317.472C791.583 317.472 792.094 317.683 792.47 318.06L798.81 324.41L823.71 299.5C824.087 299.125 824.597 298.914 825.129 298.915C825.66 298.916 826.17 299.128 826.545 299.505C826.92 299.882 827.131 300.392 827.13 300.923C827.129 301.455 826.917 301.965 826.54 302.34L800.23 328.66C800.043 328.845 799.822 328.992 799.578 329.091C799.334 329.191 799.073 329.241 798.81 329.24Z" fill="#231F20"/>
<path d="M978.31 314.08H848.22V327.24H978.31V314.08Z" fill="white"/>
<path d="M978.31 327.74H848.22C848.087 327.74 847.96 327.687 847.866 327.594C847.772 327.5 847.72 327.373 847.72 327.24V314.08C847.72 313.947 847.772 313.82 847.866 313.727C847.96 313.633 848.087 313.58 848.22 313.58H978.31C978.442 313.58 978.57 313.633 978.663 313.727C978.757 313.82 978.81 313.947 978.81 314.08V327.24C978.81 327.373 978.757 327.5 978.663 327.594C978.57 327.687 978.442 327.74 978.31 327.74ZM848.72 326.74H977.81V314.58H848.72V326.74Z" fill="#231F20"/>
<path d="M1001.36 333.39L936.79 377.91C946.835 370.985 955.153 361.844 961.102 351.192C967.051 340.541 970.472 328.664 971.1 316.48L971.68 305.33L1001.36 333.39Z" fill="white"/>
<path d="M936.79 378.41C936.683 378.411 936.579 378.377 936.493 378.315C936.406 378.252 936.342 378.163 936.31 378.062C936.277 377.96 936.278 377.851 936.313 377.749C936.347 377.648 936.412 377.561 936.5 377.5C946.444 370.593 954.682 361.508 960.586 350.938C966.489 340.367 969.904 328.589 970.57 316.5L971.15 305.34C971.154 305.245 971.186 305.153 971.241 305.075C971.296 304.997 971.372 304.936 971.46 304.9C971.549 304.865 971.646 304.856 971.739 304.874C971.833 304.892 971.92 304.935 971.99 305L1001.7 333C1001.75 333.051 1001.8 333.113 1001.82 333.182C1001.85 333.251 1001.86 333.326 1001.86 333.4C1001.86 333.476 1001.83 333.55 1001.79 333.616C1001.76 333.682 1001.7 333.738 1001.64 333.78L937.07 378.3C936.99 378.364 936.892 378.402 936.79 378.41V378.41ZM972.12 306.41L971.6 316.48C970.477 336.934 961.618 356.195 946.82 370.36L1000.57 333.3L972.12 306.41Z" fill="#231F20"/>
<path d="M1001.36 66.2H770.95V114.38H1001.36V66.2Z" fill="#231F20"/>
<path d="M1001.36 114.88H771C770.867 114.88 770.74 114.827 770.646 114.733C770.553 114.64 770.5 114.513 770.5 114.38V66.2C770.5 66.0673 770.553 65.9401 770.646 65.8464C770.74 65.7526 770.867 65.7 771 65.7H1001.41C1001.54 65.7 1001.67 65.7526 1001.76 65.8464C1001.86 65.9401 1001.91 66.0673 1001.91 66.2V114.38C1001.91 114.45 1001.9 114.519 1001.87 114.584C1001.84 114.648 1001.8 114.705 1001.75 114.752C1001.69 114.8 1001.63 114.835 1001.57 114.857C1001.5 114.879 1001.43 114.887 1001.36 114.88V114.88ZM771.45 113.88H1000.86V66.7H771.45V113.88Z" fill="#231F20"/>
<path d="M816.06 76.6001H791.44C786.436 76.6001 782.38 80.6564 782.38 85.6601V92.9401C782.38 97.9438 786.436 102 791.44 102H816.06C821.064 102 825.12 97.9438 825.12 92.9401V85.6601C825.12 80.6564 821.064 76.6001 816.06 76.6001Z" fill="white"/>
<path d="M816.05 102.5H791.46C788.92 102.497 786.485 101.487 784.689 99.6913C782.893 97.8952 781.883 95.4601 781.88 92.9201V85.6801C781.883 83.1401 782.893 80.705 784.689 78.9089C786.485 77.1129 788.92 76.1027 791.46 76.1001H816.05C818.59 76.1027 821.025 77.1129 822.821 78.9089C824.617 80.705 825.627 83.1401 825.63 85.6801V92.9201C825.627 95.4601 824.617 97.8952 822.821 99.6913C821.025 101.487 818.59 102.497 816.05 102.5V102.5ZM791.46 77.1001C789.186 77.1027 787.006 78.0079 785.399 79.6166C783.792 81.2254 782.89 83.4063 782.89 85.6801V92.9201C782.89 95.193 783.793 97.3728 785.4 98.98C787.007 100.587 789.187 101.49 791.46 101.49H816.05C818.324 101.49 820.505 100.587 822.113 98.9806C823.722 97.3737 824.627 95.1939 824.63 92.9201V85.6801C824.627 83.4053 823.722 81.2245 822.114 79.616C820.505 78.0075 818.325 77.1027 816.05 77.1001H791.46Z" fill="#231F20"/>
<path d="M978.31 85.4199H848.22V93.1599H978.31V85.4199Z" fill="white"/>
<path d="M978.31 93.6699H848.22C848.087 93.6699 847.96 93.6172 847.866 93.5235C847.772 93.4297 847.72 93.3025 847.72 93.1699V85.4199C847.72 85.2873 847.772 85.1601 847.866 85.0663C847.96 84.9726 848.087 84.9199 848.22 84.9199H978.31C978.442 84.9225 978.567 84.976 978.66 85.0692C978.754 85.1624 978.807 85.2881 978.81 85.4199V93.1699C978.81 93.3025 978.757 93.4297 978.663 93.5235C978.57 93.6172 978.442 93.6699 978.31 93.6699ZM848.72 92.6699H977.81V85.9299H848.72V92.6699Z" fill="#231F20"/>
</svg>
